<svg id="Layer_1" data-name="Layer 1" xmlns="http://www.w3.org/2000/svg" viewBox="0 0 1200 599.47">
  <defs>
    <style>
      .cls-1 {
        fill: none;
        stroke-linecap: round;
        stroke-dasharray: 0 8;
      }

      .cls-1, .cls-5 {
        stroke: #231f20;
        stroke-miterlimit: 10;
      }

      .cls-2 {
        isolation: isolate;
				fill: green;
      }

      .cls-3 {
        fill: black;
				display: none;
      }

      .cls-4, .cls-5 {
        fill: #fff;
      }

      .cls-5 {
        stroke-width: 0.52px;
      }
    </style>
  </defs>
  <polyline class="cls-1" points="1145.94 0 893.46 145.77 1200 323.91"/>
  <polyline class="cls-1" points="752.25 600 430.53 413.04 106.71 600"/>
  <polyline class="cls-1" points="897.63 0 769.71 73.86 642.62 0"/>
  <polyline class="cls-1" points="0 162.84 306.78 341.12 0 518.25"/>
  <g class="cls-2">
    <g>
      <path class="cls-3" d="M628.86,331.17a8.86,8.86,0,0,0-2.5-1,11.18,11.18,0,0,0-2.7-.25,10.78,10.78,0,0,0-2.66.42,10.36,10.36,0,0,0-2.44,1,6.06,6.06,0,0,0-1.71,1.4,2.73,2.73,0,0,0-.68,1.52,2.33,2.33,0,0,0,.47,1.55,5.08,5.08,0,0,0,1.69,1.44,6.46,6.46,0,0,0,1.76.67,7.83,7.83,0,0,0,2.38.14l-.91.8,1.42.82,5.44-3.16-4.26-2.46-1.65,1,2.24,1.29a5,5,0,0,1-2.32.53,4.6,4.6,0,0,1-2.25-.66,2.33,2.33,0,0,1-1-.9,1.2,1.2,0,0,1-.09-.94,2.16,2.16,0,0,1,.6-.9,5.62,5.62,0,0,1,1.09-.81,9.88,9.88,0,0,1,1.43-.66,7.1,7.1,0,0,1,1.58-.36,5.56,5.56,0,0,1,1.63,0,4.73,4.73,0,0,1,1.57.57,1.77,1.77,0,0,1,.94,1,1.22,1.22,0,0,1-.5,1.18l2.13,1.22a3,3,0,0,0,1.06-1.15,1.89,1.89,0,0,0,.14-1.21,2.7,2.7,0,0,0-.64-1.16,5.26,5.26,0,0,0-1.27-1"/>
      <path class="cls-3" d="M633.93,337.59l-2-1.17-7.28,4.24,2,1.16,7.29-4.23M636.7,336l-2-1.16-1.65,1,2,1.16,1.65-1"/>
      <path class="cls-3" d="M641.19,338.56a4.77,4.77,0,0,0-2.47-.7,4.27,4.27,0,0,0-2.2.57l-.56.33-1.21-.7-1.34.78,1.21.7-6,3.45,2,1.17,6-3.46,1.39.8,1.34-.78-1.39-.8.44-.25a1.72,1.72,0,0,1,.81-.27,1.48,1.48,0,0,1,.79.23,7.48,7.48,0,0,1,.69.45l1.49-.87-.49-.32c-.16-.12-.33-.22-.51-.33"/>
      <path class="cls-3" d="M645,341.44l-2-1.17-2.18,1.27-1.22-.7-1.34.77,1.22.71-4.3,2.5a1.8,1.8,0,0,0-.71.62.65.65,0,0,0,0,.59,1.7,1.7,0,0,0,.49.58,8,8,0,0,0,.83.55l.61.34c.23.11.43.21.63.29l1.55-.9a2.52,2.52,0,0,1-.34-.15,2.79,2.79,0,0,1-.34-.18c-.34-.19-.5-.36-.51-.49s.17-.29.51-.49l3.61-2.1,1.47.86,1.34-.78-1.48-.85,2.19-1.27"/>
      <path class="cls-3" d="M648.44,345.74a9.28,9.28,0,0,0-1.27-.61,6.65,6.65,0,0,0-1.39-.38,5,5,0,0,0-1.44,0,4.09,4.09,0,0,0-1.44.51,1.5,1.5,0,0,0-.61.59.88.88,0,0,0,0,.62,1.84,1.84,0,0,0,.39.64q.29.31.63.63a10,10,0,0,1,1.23,1.23c.25.32.23.57-.07.74a1.37,1.37,0,0,1-.57.19,2.48,2.48,0,0,1-.61,0,3.83,3.83,0,0,1-.58-.16,3.75,3.75,0,0,1-.49-.23,2.58,2.58,0,0,1-.51-.37,1.08,1.08,0,0,1-.27-.41.56.56,0,0,1,0-.42.93.93,0,0,1,.41-.4L640,346.77a2.15,2.15,0,0,0-.89.9,1.17,1.17,0,0,0,0,.9,2.45,2.45,0,0,0,.66.88,7,7,0,0,0,1.13.79,8.73,8.73,0,0,0,1.34.64,6.52,6.52,0,0,0,1.49.38,5.68,5.68,0,0,0,1.54,0,4.09,4.09,0,0,0,1.5-.53,1.61,1.61,0,0,0,.65-.61.84.84,0,0,0,0-.64,1.74,1.74,0,0,0-.37-.65c-.19-.21-.38-.42-.61-.63l-.66-.59a6.88,6.88,0,0,1-.54-.53,1.11,1.11,0,0,1-.25-.46c0-.15.07-.27.24-.37a1,1,0,0,1,.48-.14,1.51,1.51,0,0,1,.48,0,2.06,2.06,0,0,1,.46.15l.38.2a2,2,0,0,1,.74.66c.12.24,0,.47-.35.71l1.92,1.11a2,2,0,0,0,.77-.85,1.11,1.11,0,0,0,0-.84,2.32,2.32,0,0,0-.62-.8,6.57,6.57,0,0,0-1-.73"/>
      <polyline class="cls-3" points="614.67 342.85 606.37 338.05 604.51 339.13 607.55 340.89 599.34 345.66 601.56 346.94 609.77 342.17 612.81 343.93 614.67 342.85"/>
      <path class="cls-3" d="M608.05,349.37a3.47,3.47,0,0,1-.42-.3.85.85,0,0,1-.25-.31.42.42,0,0,1,0-.33.85.85,0,0,1,.35-.32,1.65,1.65,0,0,1,.57-.21,2.12,2.12,0,0,1,.56,0,2.37,2.37,0,0,1,.58.11c.19.05.37.12.56.19s.37.15.55.24l.53.22a5.34,5.34,0,0,0,.52.18,2.17,2.17,0,0,0,.5.08l-.75.43a4.52,4.52,0,0,1-.49.24,2.89,2.89,0,0,1-.75.22,3.08,3.08,0,0,1-1,0,3.38,3.38,0,0,1-1.12-.42m6.77-3.44a10.09,10.09,0,0,0-1.32-.64,7.88,7.88,0,0,0-1.5-.39,5.66,5.66,0,0,0-1.54,0,4.26,4.26,0,0,0-1.52.47l2,1.16a2.4,2.4,0,0,1,1.25-.25,2.74,2.74,0,0,1,1.18.39,5,5,0,0,1,.48.31.87.87,0,0,1,.27.32.38.38,0,0,1,0,.33.9.9,0,0,1-.4.36,1,1,0,0,1-.66.17,2.74,2.74,0,0,1-.79-.17c-.28-.1-.58-.22-.91-.37s-.65-.3-1-.46-.71-.28-1.09-.4a5.27,5.27,0,0,0-1.15-.25,4.11,4.11,0,0,0-1.21,0,3.68,3.68,0,0,0-1.25.47,2.07,2.07,0,0,0-.78.68.89.89,0,0,0-.14.7,1.45,1.45,0,0,0,.39.68,4,4,0,0,0,.86.64,7.34,7.34,0,0,0,1.53.65,5.46,5.46,0,0,0,1.82.26l-.3.24a1.55,1.55,0,0,0-.26.25l2,1.18a1.53,1.53,0,0,1,.48-.51,9.83,9.83,0,0,1,.89-.58L616,349a1.5,1.5,0,0,0,.77-.79,1,1,0,0,0-.14-.81,2.79,2.79,0,0,0-.74-.77,8.53,8.53,0,0,0-1-.69"/>
      <path class="cls-3" d="M622.61,350.42a10.52,10.52,0,0,0-1.26-.61,6.21,6.21,0,0,0-1.39-.37,4.7,4.7,0,0,0-1.45,0,4.11,4.11,0,0,0-1.43.51,1.37,1.37,0,0,0-.61.58.86.86,0,0,0,0,.63,2,2,0,0,0,.4.64,7.25,7.25,0,0,0,.62.62,11.82,11.82,0,0,1,1.24,1.24c.24.31.22.56-.08.74a1.46,1.46,0,0,1-.57.18,2.4,2.4,0,0,1-.6,0,2.46,2.46,0,0,1-.59-.16,3.77,3.77,0,0,1-.49-.22,2.26,2.26,0,0,1-.5-.38.91.91,0,0,1-.27-.41.52.52,0,0,1,0-.42.91.91,0,0,1,.42-.4l-1.91-1.11a2.2,2.2,0,0,0-.9.91,1.17,1.17,0,0,0,0,.9,2.34,2.34,0,0,0,.66.88,7.63,7.63,0,0,0,1.12.79,10.37,10.37,0,0,0,1.34.64,6.5,6.5,0,0,0,1.49.37,5.3,5.3,0,0,0,1.54,0,4.35,4.35,0,0,0,1.5-.53,1.54,1.54,0,0,0,.66-.62.88.88,0,0,0,.05-.64,1.92,1.92,0,0,0-.37-.64,6.18,6.18,0,0,0-.62-.64l-.66-.58a6.57,6.57,0,0,1-.53-.54.88.88,0,0,1-.25-.46c0-.14.06-.26.24-.37a1.16,1.16,0,0,1,.47-.14,1.87,1.87,0,0,1,.48,0,2.51,2.51,0,0,1,.46.16l.39.2a2,2,0,0,1,.73.66c.13.23,0,.47-.34.71l1.91,1.1a1.86,1.86,0,0,0,.77-.85,1.11,1.11,0,0,0,0-.84,2.29,2.29,0,0,0-.62-.8,8,8,0,0,0-1-.73"/>
      <path class="cls-3" d="M631.77,353.4l-2-1.16-2.19,1.27-1.23-.7-1.34.77,1.23.71-4.3,2.5a1.87,1.87,0,0,0-.71.62.68.68,0,0,0,0,.59,1.63,1.63,0,0,0,.5.57,6.14,6.14,0,0,0,.82.55l.62.35c.22.11.43.21.63.29l1.55-.9-.34-.14-.34-.19c-.34-.19-.51-.36-.51-.49s.17-.29.5-.49l3.61-2.1,1.48.85,1.33-.77-1.47-.86,2.19-1.27"/>
      <path class="cls-3" d="M630.82,358.7a4.49,4.49,0,0,1,.58-.22,3.31,3.31,0,0,1,.77-.14,3.57,3.57,0,0,1,.91.06,3,3,0,0,1,1,.37c.49.28.72.57.7.87a1.59,1.59,0,0,1-.65,1l-3.28-1.9m4.79-.77a6.69,6.69,0,0,0-1.82-.71,8.88,8.88,0,0,0-2-.22,8.29,8.29,0,0,0-2,.27A7.08,7.08,0,0,0,628,358a4.58,4.58,0,0,0-1.29,1.05,2,2,0,0,0-.47,1.14,1.78,1.78,0,0,0,.4,1.13,4.07,4.07,0,0,0,1.29,1.06,7.22,7.22,0,0,0,2.68.91,8,8,0,0,0,3.18-.34l-1.77-1a2.72,2.72,0,0,1-1.18.06,3.34,3.34,0,0,1-1.35-.42c-.57-.33-.86-.67-.87-1s.29-.71.91-1.11l5.29,3.06a6.19,6.19,0,0,0,1.49-1,2.57,2.57,0,0,0,.73-1.17,1.61,1.61,0,0,0-.18-1.22,3.22,3.22,0,0,0-1.27-1.15"/>
      <path class="cls-3" d="M595,350.83a8.86,8.86,0,0,0-2.5-1,10.74,10.74,0,0,0-2.7-.25,11.44,11.44,0,0,0-2.67.42,10.07,10.07,0,0,0-2.43,1,6.16,6.16,0,0,0-1.71,1.39,2.7,2.7,0,0,0-.68,1.52,2.44,2.44,0,0,0,.46,1.55,5.13,5.13,0,0,0,1.7,1.45,8.58,8.58,0,0,0,2,.82,8.76,8.76,0,0,0,2.18.31,9.41,9.41,0,0,0,2.23-.21,9.51,9.51,0,0,0,2.14-.74l-2.16-1.25a5.68,5.68,0,0,1-2.33.55,4.2,4.2,0,0,1-2.22-.56,2.35,2.35,0,0,1-1-.9,1.2,1.2,0,0,1-.09-.94,2.09,2.09,0,0,1,.61-.9,5.45,5.45,0,0,1,1.07-.81,10,10,0,0,1,1.44-.66,7.72,7.72,0,0,1,1.58-.37,5.94,5.94,0,0,1,1.63,0,4.52,4.52,0,0,1,1.57.57,2.34,2.34,0,0,1,.65.53,1.36,1.36,0,0,1,.3.6,1.14,1.14,0,0,1-.06.61,1.36,1.36,0,0,1-.45.56l2.16,1.24a3.07,3.07,0,0,0,1.07-1.18,1.81,1.81,0,0,0,.16-1.22,2.53,2.53,0,0,0-.64-1.17,5.06,5.06,0,0,0-1.33-1.05"/>
      <path class="cls-3" d="M596.57,358.53a3.2,3.2,0,0,1,.57-.23,3,3,0,0,1,.77-.14,3.54,3.54,0,0,1,.91.06,3.13,3.13,0,0,1,1,.37c.49.28.73.57.71.86a1.62,1.62,0,0,1-.66,1l-3.27-1.89m4.79-.78a6.69,6.69,0,0,0-1.82-.71,8.45,8.45,0,0,0-2-.21,8.27,8.27,0,0,0-2,.26,7,7,0,0,0-1.8.73,4.53,4.53,0,0,0-1.28,1.05A2,2,0,0,0,592,360a1.71,1.71,0,0,0,.39,1.13,4.18,4.18,0,0,0,1.29,1.06,7,7,0,0,0,2.69.9,7.85,7.85,0,0,0,3.18-.33l-1.77-1a3.09,3.09,0,0,1-1.18.06,3.45,3.45,0,0,1-1.36-.43c-.57-.33-.85-.67-.86-1s.29-.71.91-1.11l5.29,3.06a5.93,5.93,0,0,0,1.48-1,2.51,2.51,0,0,0,.74-1.17,1.65,1.65,0,0,0-.18-1.22,3.15,3.15,0,0,0-1.27-1.15"/>
      <path class="cls-3" d="M610.31,362.91a5.44,5.44,0,0,0-1.54-.55,5.78,5.78,0,0,0-1.91,0l-.05,0,1-.59-1.92-1.11-7.28,4.24,2,1.16,3.82-2.22a4.73,4.73,0,0,1,2-.71,2.79,2.79,0,0,1,1.68.4c.48.28.67.56.56.84a2.4,2.4,0,0,1-1.06.95l-4.11,2.39,2,1.16,4.48-2.6a6.12,6.12,0,0,0,1.11-.79,1.56,1.56,0,0,0,.53-.79,1,1,0,0,0-.21-.82,3.67,3.67,0,0,0-1.11-.9"/>
      <path class="cls-3" d="M617.53,367.08a9.32,9.32,0,0,0-1.27-.61,6.47,6.47,0,0,0-1.39-.37,4.63,4.63,0,0,0-1.44,0,4,4,0,0,0-1.43.51,1.33,1.33,0,0,0-.61.59.83.83,0,0,0,0,.62,1.7,1.7,0,0,0,.4.63c.19.22.4.43.62.64a10,10,0,0,1,1.23,1.23c.25.32.23.56-.08.74a1.24,1.24,0,0,1-.57.18,2.41,2.41,0,0,1-.6,0,3.1,3.1,0,0,1-.58-.15,3.22,3.22,0,0,1-.49-.23,2.6,2.6,0,0,1-.5-.37,1.2,1.2,0,0,1-.28-.41.64.64,0,0,1,0-.43,1.08,1.08,0,0,1,.42-.4l-1.9-1.1a2,2,0,0,0-.89.9,1.22,1.22,0,0,0,0,.9,2.27,2.27,0,0,0,.67.87,7,7,0,0,0,1.12.8,9.91,9.91,0,0,0,1.35.64,5.84,5.84,0,0,0,1.48.37,5.3,5.3,0,0,0,1.54,0,4.15,4.15,0,0,0,1.5-.53,1.49,1.49,0,0,0,.65-.61.84.84,0,0,0,0-.64,1.77,1.77,0,0,0-.36-.65c-.19-.22-.4-.43-.62-.64l-.66-.59a6.59,6.59,0,0,1-.53-.53.86.86,0,0,1-.25-.45c0-.15.06-.27.24-.37a1,1,0,0,1,.48-.15,1.83,1.83,0,0,1,.47,0,2.18,2.18,0,0,1,.45.16,3.72,3.72,0,0,1,.4.2,1.91,1.91,0,0,1,.73.66c.12.23,0,.47-.34.71l1.91,1.1a1.87,1.87,0,0,0,.77-.85,1.13,1.13,0,0,0,0-.83,2.27,2.27,0,0,0-.63-.8,6.16,6.16,0,0,0-1-.74"/>
      <path class="cls-3" d="M628.83,373.83l-2-1.16L623,374.89a4.77,4.77,0,0,1-2,.72,2.88,2.88,0,0,1-1.68-.41c-.48-.27-.66-.56-.56-.84a2.37,2.37,0,0,1,1.07-.94L624,371l-2-1.16-4.49,2.6a7.29,7.29,0,0,0-1.11.79,1.55,1.55,0,0,0-.52.79,1,1,0,0,0,.21.82,3.78,3.78,0,0,0,1.11.89,5.25,5.25,0,0,0,1.54.56,5.47,5.47,0,0,0,1.9,0l0,0-1,.59,1.92,1.11,7.29-4.24"/>
      <path class="cls-3" d="M633.56,376.34a9.32,9.32,0,0,0-1.27-.61,6,6,0,0,0-1.39-.38,5.34,5.34,0,0,0-1.44,0,3.88,3.88,0,0,0-1.43.52,1.37,1.37,0,0,0-.61.58.81.81,0,0,0,0,.63,1.67,1.67,0,0,0,.39.63c.19.21.4.42.62.63a10,10,0,0,1,1.23,1.23c.25.32.24.57-.07.75a1.46,1.46,0,0,1-.58.18,2.43,2.43,0,0,1-.6,0l-.58-.15a3.2,3.2,0,0,1-.49-.24,2.16,2.16,0,0,1-.5-.37,1,1,0,0,1-.28-.41.61.61,0,0,1,0-.42,1,1,0,0,1,.42-.4l-1.91-1.11a2.09,2.09,0,0,0-.89.9,1.24,1.24,0,0,0,0,.91,2.38,2.38,0,0,0,.67.87,7,7,0,0,0,1.12.8,9.29,9.29,0,0,0,1.35.63,5.93,5.93,0,0,0,1.49.38,5.31,5.31,0,0,0,1.54,0,4,4,0,0,0,1.49-.53,1.52,1.52,0,0,0,.66-.61.86.86,0,0,0,0-.63,1.65,1.65,0,0,0-.37-.65c-.19-.22-.4-.43-.62-.64l-.66-.59a6.59,6.59,0,0,1-.53-.53.92.92,0,0,1-.25-.46c0-.14.06-.26.24-.37a1,1,0,0,1,.48-.14,2,2,0,0,1,.48,0,3.26,3.26,0,0,1,.44.15l.4.2a1.85,1.85,0,0,1,.73.67c.13.23,0,.46-.34.7l1.91,1.11a1.86,1.86,0,0,0,.77-.85,1.11,1.11,0,0,0,0-.84,2.32,2.32,0,0,0-.62-.8,6.68,6.68,0,0,0-1.05-.73"/>
      <path class="cls-3" d="M638.93,386l6.35-3.69,1.59.92a3.6,3.6,0,0,1,1.15.93,1.18,1.18,0,0,1,.23.91,1.79,1.79,0,0,1-.56.9,7.49,7.49,0,0,1-2.85,1.58,5.82,5.82,0,0,1-1.5.21,4.71,4.71,0,0,1-1.33-.16,4.89,4.89,0,0,1-1.09-.46l-2-1.14m10.35-3.53-4.37-2.52-10.06,5.84,4.37,2.52a8.24,8.24,0,0,0,2.41,1,9.16,9.16,0,0,0,2.5.2,9.92,9.92,0,0,0,2.46-.43,10.83,10.83,0,0,0,2.31-1,6.37,6.37,0,0,0,1.84-1.46,2.34,2.34,0,0,0,.58-1.47,2.13,2.13,0,0,0-.53-1.38,5.05,5.05,0,0,0-1.51-1.23"/>
      <path class="cls-3" d="M649.23,392.73a2.93,2.93,0,0,1-.43-.29,1,1,0,0,1-.25-.32.36.36,0,0,1,0-.32.92.92,0,0,1,.35-.32,1.92,1.92,0,0,1,.57-.22,2.09,2.09,0,0,1,.56,0,2.87,2.87,0,0,1,.57.11c.2.06.39.12.56.19l.56.24.53.23.51.17a1.86,1.86,0,0,0,.5.08l-.75.44a4.19,4.19,0,0,1-.48.24,3,3,0,0,1-.75.22,3.45,3.45,0,0,1-1,0,3.06,3.06,0,0,1-1.11-.42m6.77-3.44a11.68,11.68,0,0,0-1.33-.63,6.63,6.63,0,0,0-1.5-.39,5.65,5.65,0,0,0-1.54,0,4.34,4.34,0,0,0-1.52.48l2,1.16a2.43,2.43,0,0,1,1.25-.26,2.83,2.83,0,0,1,1.19.39,4.79,4.79,0,0,1,.47.31.92.92,0,0,1,.26.32.34.34,0,0,1,0,.34,1,1,0,0,1-.41.36,1,1,0,0,1-.65.16,2.77,2.77,0,0,1-.79-.16,8,8,0,0,1-.9-.38l-1-.45c-.36-.15-.71-.29-1.09-.41a6.67,6.67,0,0,0-1.16-.25,4.41,4.41,0,0,0-1.2,0,4,4,0,0,0-1.25.46,2.34,2.34,0,0,0-.78.68,1,1,0,0,0-.14.7,1.42,1.42,0,0,0,.4.69,4.09,4.09,0,0,0,.85.64,7.12,7.12,0,0,0,1.53.65,6,6,0,0,0,1.83.26,1.5,1.5,0,0,0-.31.24,1.18,1.18,0,0,0-.25.25l2,1.18a1.38,1.38,0,0,1,.47-.51,9.14,9.14,0,0,1,.89-.58l3.79-2.2a1.48,1.48,0,0,0,.77-.8,1,1,0,0,0-.14-.8A2.81,2.81,0,0,0,657,390a7.46,7.46,0,0,0-1-.7"/>
      <path class="cls-3" d="M665.32,392.37l-2-1.16-2.18,1.27-1.22-.71-1.34.78,1.22.71-4.3,2.49a1.63,1.63,0,0,0-.7.63.65.65,0,0,0,0,.59,1.63,1.63,0,0,0,.5.57,6.87,6.87,0,0,0,.82.55l.63.34a4.5,4.5,0,0,0,.63.3l1.54-.9a3.31,3.31,0,0,1-.33-.15,3.84,3.84,0,0,1-.35-.18c-.34-.2-.51-.36-.51-.49s.16-.3.51-.5l3.6-2.09,1.48.85,1.34-.78-1.48-.85,2.19-1.27"/>
      <path class="cls-3" d="M662.37,400.32a3.07,3.07,0,0,1-.44-.3,1.08,1.08,0,0,1-.24-.31.38.38,0,0,1,0-.33.85.85,0,0,1,.35-.32,1.58,1.58,0,0,1,.57-.21,2.09,2.09,0,0,1,.56,0,2.3,2.3,0,0,1,.57.11,4.6,4.6,0,0,1,.56.19c.19.07.37.16.55.24s.36.16.54.22.34.13.51.18a1.8,1.8,0,0,0,.5.08l-.75.43a4.89,4.89,0,0,1-.48.25,3.52,3.52,0,0,1-.75.21,3.1,3.1,0,0,1-1,0,2.86,2.86,0,0,1-1.11-.41m6.76-3.45a10.93,10.93,0,0,0-1.33-.63,7.79,7.79,0,0,0-1.49-.39,6.1,6.1,0,0,0-1.54,0,4.59,4.59,0,0,0-1.53.47l2,1.17a2.45,2.45,0,0,1,1.25-.27,3,3,0,0,1,1.19.4,3.48,3.48,0,0,1,.47.31.94.94,0,0,1,.26.32.37.37,0,0,1,0,.34.93.93,0,0,1-.41.35,1,1,0,0,1-.65.17,2.74,2.74,0,0,1-.79-.17c-.28-.1-.58-.22-.9-.37l-1-.45c-.36-.15-.71-.29-1.09-.41a5.23,5.23,0,0,0-1.16-.25,4.49,4.49,0,0,0-1.21,0A3.71,3.71,0,0,0,660,398a2.24,2.24,0,0,0-.78.68.94.94,0,0,0-.15.7,1.58,1.58,0,0,0,.41.69,3.75,3.75,0,0,0,.85.63,7.13,7.13,0,0,0,1.53.66,6,6,0,0,0,1.83.25c-.12.08-.22.16-.32.24s-.17.17-.25.25l2,1.18a1.29,1.29,0,0,1,.47-.5,9.14,9.14,0,0,1,.89-.58l3.79-2.21a1.46,1.46,0,0,0,.77-.79,1,1,0,0,0-.14-.81,3.12,3.12,0,0,0-.74-.77,9.93,9.93,0,0,0-1-.7"/>
      <polyline class="cls-3" points="584.24 364.47 581.11 362.66 571.95 365.39 571.92 365.37 576.47 359.98 573.33 358.17 563.26 364.02 565.35 365.23 572.41 361.12 572.44 361.14 567.87 366.68 569.58 367.67 579.19 364.96 579.22 364.97 572.09 369.12 574.17 370.32 584.24 364.47"/>
      <path class="cls-3" d="M582,369.71a4.29,4.29,0,0,1,.57-.22,3.52,3.52,0,0,1,.77-.14,3.65,3.65,0,0,1,.92.06,2.93,2.93,0,0,1,1,.37c.49.29.72.57.71.86a1.55,1.55,0,0,1-.65,1l-3.28-1.9m4.79-.77a6.33,6.33,0,0,0-1.83-.71,8.21,8.21,0,0,0-4,0,7.08,7.08,0,0,0-1.79.73,4.73,4.73,0,0,0-1.29,1.05,2,2,0,0,0-.46,1.14,1.71,1.71,0,0,0,.39,1.13,4.33,4.33,0,0,0,1.29,1.06,7.08,7.08,0,0,0,2.69.9A7.7,7.7,0,0,0,585,374l-1.77-1A2.92,2.92,0,0,1,582,373a3.42,3.42,0,0,1-1.34-.44c-.57-.32-.86-.66-.87-1s.29-.71.91-1.1L586,373.5a5.5,5.5,0,0,0,1.48-1,2.54,2.54,0,0,0,.73-1.17,1.52,1.52,0,0,0-.17-1.22,3.22,3.22,0,0,0-1.27-1.15"/>
      <path class="cls-3" d="M595.75,374.11a4.74,4.74,0,0,0-1.54-.55,5.29,5.29,0,0,0-1.91,0l0,0,1-.59-1.92-1.11L584.06,376l2,1.16L589.9,375a4.63,4.63,0,0,1,2-.72,2.75,2.75,0,0,1,1.67.4q.74.42.57.84a2.34,2.34,0,0,1-1.06.95l-4.12,2.39,2,1.16,4.48-2.6a6.26,6.26,0,0,0,1.11-.79,1.5,1.5,0,0,0,.53-.79,1,1,0,0,0-.21-.82,3.27,3.27,0,0,0-1.11-.89"/>
      <path class="cls-3" d="M604.5,376.86l-2-1.17L600.3,377l-1.22-.7-1.33.78,1.22.7-4.31,2.5a1.83,1.83,0,0,0-.7.62.67.67,0,0,0,0,.6,1.66,1.66,0,0,0,.49.57,7.28,7.28,0,0,0,.82.55l.62.34c.23.11.43.21.63.29l1.55-.9a2.52,2.52,0,0,1-.34-.15,2.21,2.21,0,0,1-.34-.18c-.34-.19-.51-.36-.51-.48s.17-.3.5-.5l3.61-2.1,1.48.86,1.34-.78-1.48-.85,2.18-1.27"/>
      <path class="cls-3" d="M601.55,384.8a2.37,2.37,0,0,1-.42-.29.78.78,0,0,1-.25-.32.33.33,0,0,1,0-.32.79.79,0,0,1,.35-.32,1.6,1.6,0,0,1,.56-.21,2.73,2.73,0,0,1,.57,0,4.21,4.21,0,0,1,.58.11l.55.19.56.24.52.23.52.18a2.89,2.89,0,0,0,.5.08l-.75.43a3.2,3.2,0,0,1-.49.24,2.49,2.49,0,0,1-.74.21,3.08,3.08,0,0,1-1,0,3.17,3.17,0,0,1-1.12-.42m6.77-3.44a10.93,10.93,0,0,0-1.33-.63,7,7,0,0,0-1.49-.39,5.67,5.67,0,0,0-1.54,0,4.49,4.49,0,0,0-1.52.48l2,1.16a2.38,2.38,0,0,1,1.24-.26,2.74,2.74,0,0,1,1.19.39,3.82,3.82,0,0,1,.47.32.78.78,0,0,1,.27.32.38.38,0,0,1,0,.33.94.94,0,0,1-.41.36,1.13,1.13,0,0,1-.65.17,3,3,0,0,1-.79-.17c-.28-.1-.58-.23-.91-.38l-1-.45c-.34-.14-.71-.28-1.09-.41a5.76,5.76,0,0,0-1.15-.25,4.5,4.5,0,0,0-1.21.05,3.63,3.63,0,0,0-1.25.47,2.09,2.09,0,0,0-.77.67.91.91,0,0,0-.15.7,1.37,1.37,0,0,0,.4.69,4.28,4.28,0,0,0,.85.64,7.57,7.57,0,0,0,1.53.65,5.75,5.75,0,0,0,1.83.26,2.61,2.61,0,0,0-.3.23,2.12,2.12,0,0,0-.26.26l2,1.18a1.43,1.43,0,0,1,.48-.51,8.07,8.07,0,0,1,.89-.58l3.78-2.2c.45-.26.71-.52.78-.79a1.07,1.07,0,0,0-.14-.81,2.68,2.68,0,0,0-.74-.78,11.72,11.72,0,0,0-1-.69"/>
      <polyline class="cls-3" points="617.75 383.82 615.74 382.66 605.68 388.51 607.69 389.67 617.75 383.82"/>
      <polyline class="cls-3" points="632.06 392.07 629.83 390.79 625.96 393.03 621.87 390.67 625.73 388.42 623.5 387.14 613.43 392.99 615.66 394.27 620.01 391.75 624.11 394.11 619.76 396.64 621.99 397.93 632.06 392.07"/>
      <path class="cls-3" d="M629.82,397.32a3.25,3.25,0,0,1,.57-.22,2.64,2.64,0,0,1,.78-.14,3.55,3.55,0,0,1,.91.05,3.26,3.26,0,0,1,1,.38c.49.28.72.57.7.86a1.56,1.56,0,0,1-.65,1l-3.28-1.89m4.79-.78a6.55,6.55,0,0,0-1.82-.7,7.89,7.89,0,0,0-2-.22,8.23,8.23,0,0,0-2,.27,6.94,6.94,0,0,0-1.79.73,4.42,4.42,0,0,0-1.29,1.05,2,2,0,0,0-.47,1.13,1.77,1.77,0,0,0,.39,1.14,4.48,4.48,0,0,0,1.29,1.06,7.07,7.07,0,0,0,2.7.9,7.7,7.7,0,0,0,3.18-.34l-1.77-1a3.15,3.15,0,0,1-1.19.06,3.4,3.4,0,0,1-1.35-.43c-.57-.33-.85-.66-.87-1s.3-.71.91-1.11l5.29,3.06a5.74,5.74,0,0,0,1.48-1,2.59,2.59,0,0,0,.74-1.18,1.61,1.61,0,0,0-.18-1.22,3.29,3.29,0,0,0-1.27-1.15"/>
      <path class="cls-3" d="M636,404.67a2,2,0,0,1-.42-.3.8.8,0,0,1-.26-.31.42.42,0,0,1,0-.33,1,1,0,0,1,.36-.32,1.74,1.74,0,0,1,.56-.21,2.63,2.63,0,0,1,.56,0,3.15,3.15,0,0,1,.58.12c.19,0,.37.12.56.19l.55.24.53.22a5.34,5.34,0,0,0,.52.18,1.73,1.73,0,0,0,.49.08l-.74.44-.49.24a3.52,3.52,0,0,1-.75.21,3.1,3.1,0,0,1-1,0,2.86,2.86,0,0,1-1.11-.41m6.77-3.44a8.29,8.29,0,0,0-1.34-.63,6.89,6.89,0,0,0-1.48-.4,6.19,6.19,0,0,0-1.55,0,4.61,4.61,0,0,0-1.52.47l2,1.16a2.48,2.48,0,0,1,1.24-.26,3,3,0,0,1,1.19.4,3.05,3.05,0,0,1,.46.31.71.71,0,0,1,.27.32.37.37,0,0,1,0,.34,1,1,0,0,1-.4.36,1.16,1.16,0,0,1-.66.16,2.81,2.81,0,0,1-.79-.17,7.83,7.83,0,0,1-.9-.37c-.32-.16-.66-.31-1-.45s-.72-.29-1.09-.41a5.73,5.73,0,0,0-1.16-.26,5,5,0,0,0-1.21.05,3.79,3.79,0,0,0-1.24.47,2.24,2.24,0,0,0-.78.68,1,1,0,0,0-.15.7,1.58,1.58,0,0,0,.41.69,4,4,0,0,0,.85.63,7.92,7.92,0,0,0,1.53.66,6,6,0,0,0,1.83.25,2.79,2.79,0,0,0-.31.24,3.13,3.13,0,0,0-.26.25l2.05,1.18a1.34,1.34,0,0,1,.48-.51,9.83,9.83,0,0,1,.89-.58l3.78-2.2a1.46,1.46,0,0,0,.77-.79,1,1,0,0,0-.14-.81,2.74,2.74,0,0,0-.73-.77,10.41,10.41,0,0,0-1-.69"/>
      <polyline class="cls-3" points="652.16 403.68 650.15 402.52 640.08 408.37 642.09 409.53 652.16 403.68"/>
      <path class="cls-3" d="M655.71,406.42l-2-1.16-2.18,1.27-1.22-.71-1.34.78,1.22.7-4.3,2.5a1.69,1.69,0,0,0-.7.63.62.62,0,0,0,0,.59,1.78,1.78,0,0,0,.49.57,8.33,8.33,0,0,0,.82.55l.63.34c.22.12.42.21.62.3l1.56-.91-.35-.14-.34-.18c-.33-.2-.51-.37-.51-.49s.17-.3.51-.49l3.61-2.1,1.47.85,1.34-.78-1.47-.85,2.18-1.27"/>
      <path class="cls-3" d="M660.76,408.65l-2-1.17-10.06,5.85,2,1.17,3.82-2.22a5,5,0,0,1,2-.72,2.8,2.8,0,0,1,1.68.41c.48.28.67.55.56.84a2.39,2.39,0,0,1-1.06.94l-4.12,2.39,2,1.17L660,414.7a7.29,7.29,0,0,0,1.11-.78,1.69,1.69,0,0,0,.53-.8,1,1,0,0,0-.21-.82,3.41,3.41,0,0,0-1.11-.89,4.46,4.46,0,0,0-1.45-.5,5.72,5.72,0,0,0-1.9,0l0,0,3.79-2.2"/>
      <polyline class="cls-3" points="563.92 372.34 555.62 367.54 553.76 368.62 556.8 370.38 548.59 375.15 550.82 376.43 559.02 371.66 562.06 373.42 563.92 372.34"/>
      <path class="cls-3" d="M565.27,376.11a4.11,4.11,0,0,0-.85-.37,6.07,6.07,0,0,0-1-.2,6.14,6.14,0,0,0-1.05,0,6.47,6.47,0,0,0-1,.14l0,0,1.35-.78-1.92-1.11L553.5,378l2,1.16,3.29-1.91a5.86,5.86,0,0,1,1-.47,3.93,3.93,0,0,1,2.19-.17,3.69,3.69,0,0,1,1.12.43l.36.23.29.23,1.86-1.08a1.43,1.43,0,0,0-.37-.29"/>
      <path class="cls-3" d="M563.1,382.2a3.82,3.82,0,0,1-.42-.29.82.82,0,0,1-.26-.32.47.47,0,0,1,0-.33,1,1,0,0,1,.36-.31,1.86,1.86,0,0,1,.56-.22,2.12,2.12,0,0,1,.56,0,2.37,2.37,0,0,1,.58.11,5.27,5.27,0,0,1,.56.19l.55.24.53.22.52.18a2.17,2.17,0,0,0,.5.08l-.75.43-.49.25a3.36,3.36,0,0,1-.75.21,3.85,3.85,0,0,1-1,0,3.13,3.13,0,0,1-1.11-.42m6.77-3.44a9.62,9.62,0,0,0-1.33-.63,6.42,6.42,0,0,0-1.49-.39,5.73,5.73,0,0,0-1.55,0,4.29,4.29,0,0,0-1.51.48l2,1.16a2.3,2.3,0,0,1,1.24-.26,2.78,2.78,0,0,1,1.19.39,4.79,4.79,0,0,1,.47.31.87.87,0,0,1,.27.32.37.37,0,0,1,0,.34,1.07,1.07,0,0,1-.41.35,1,1,0,0,1-.66.17,2.77,2.77,0,0,1-.79-.16c-.28-.11-.58-.23-.9-.38s-.66-.31-1-.45-.72-.28-1.1-.41a5.14,5.14,0,0,0-1.15-.25,4.13,4.13,0,0,0-1.21.05,3.68,3.68,0,0,0-1.24.46,2.29,2.29,0,0,0-.79.68.92.92,0,0,0-.14.69,1.44,1.44,0,0,0,.4.7,4,4,0,0,0,.85.63,8,8,0,0,0,1.54.66,5.93,5.93,0,0,0,1.82.26,1.92,1.92,0,0,0-.31.23,2.13,2.13,0,0,0-.26.26l2.05,1.18a1.28,1.28,0,0,1,.48-.51,9.82,9.82,0,0,1,.89-.59l3.79-2.2a1.44,1.44,0,0,0,.76-.79,1,1,0,0,0-.14-.81,2.89,2.89,0,0,0-.73-.77,10.41,10.41,0,0,0-1-.69"/>
      <path class="cls-3" d="M578.85,383.94a5.25,5.25,0,0,0-1.54-.55,5.58,5.58,0,0,0-1.92,0l0,0,1-.59-1.91-1.11-7.29,4.24,2,1.16,3.82-2.22a4.92,4.92,0,0,1,2-.72,2.85,2.85,0,0,1,1.67.41q.74.42.57.84a2.4,2.4,0,0,1-1.06,1L572,388.68l2,1.16,4.49-2.6a7.29,7.29,0,0,0,1.11-.79,1.6,1.6,0,0,0,.53-.79,1,1,0,0,0-.21-.82,3.53,3.53,0,0,0-1.11-.9"/>
      <path class="cls-3" d="M586.07,388.11a9.93,9.93,0,0,0-1.27-.61,6.49,6.49,0,0,0-1.39-.38,4.9,4.9,0,0,0-1.43,0,3.94,3.94,0,0,0-1.45.51,1.34,1.34,0,0,0-.6.58.86.86,0,0,0,0,.63,2.16,2.16,0,0,0,.39.63,6.24,6.24,0,0,0,.63.63,10.72,10.72,0,0,1,1.23,1.23c.25.33.23.58-.07.75a1.46,1.46,0,0,1-.58.18,2.41,2.41,0,0,1-.6,0,2.91,2.91,0,0,1-.58-.15,4.58,4.58,0,0,1-.49-.23,2.26,2.26,0,0,1-.5-.38.94.94,0,0,1-.28-.41.57.57,0,0,1,0-.42,1,1,0,0,1,.42-.4l-1.91-1.1a2.08,2.08,0,0,0-.9.9,1.17,1.17,0,0,0,0,.9,2.45,2.45,0,0,0,.66.88,8.33,8.33,0,0,0,1.13.79,11,11,0,0,0,1.34.64,6.63,6.63,0,0,0,1.49.37,5.68,5.68,0,0,0,1.54,0,4.42,4.42,0,0,0,1.5-.53,1.6,1.6,0,0,0,.66-.62.92.92,0,0,0,.05-.63,1.87,1.87,0,0,0-.37-.65c-.19-.22-.4-.43-.62-.64l-.66-.59a5.48,5.48,0,0,1-.54-.53.89.89,0,0,1-.24-.46c0-.14.06-.26.24-.37a1.16,1.16,0,0,1,.47-.14,1.91,1.91,0,0,1,.48,0,3,3,0,0,1,.45.15,3.44,3.44,0,0,1,.39.21,2,2,0,0,1,.74.66c.13.23,0,.47-.34.71l1.91,1.1a1.92,1.92,0,0,0,.77-.85,1.16,1.16,0,0,0,0-.84,2.24,2.24,0,0,0-.63-.8,7.91,7.91,0,0,0-1-.73"/>
      <path class="cls-3" d="M588.21,396.5a1.51,1.51,0,0,1-.63-.59.81.81,0,0,1,0-.61,1.67,1.67,0,0,1,.44-.61,6,6,0,0,1,.78-.55,7,7,0,0,1,1-.46,4.29,4.29,0,0,1,1-.26,3.76,3.76,0,0,1,1.06,0,2.8,2.8,0,0,1,1,.36,1.29,1.29,0,0,1,.61.59.86.86,0,0,1,0,.63,1.59,1.59,0,0,1-.46.61,3.71,3.71,0,0,1-.76.55,6.41,6.41,0,0,1-.95.45,4.23,4.23,0,0,1-1,.27,3.77,3.77,0,0,1-1.06,0,2.66,2.66,0,0,1-1-.36m6.6-3.34a5.1,5.1,0,0,0-3.31-.61l0,0,.93-.54-1.91-1.1-9.84,5.72,2,1.16,3.46-2,0,0a1.2,1.2,0,0,0,.13,1,2.72,2.72,0,0,0,1,.89,5.58,5.58,0,0,0,1.72.64,7.5,7.5,0,0,0,1.83.1,8.2,8.2,0,0,0,1.8-.35,8.53,8.53,0,0,0,1.62-.71,6.07,6.07,0,0,0,1.28-1,2.31,2.31,0,0,0,.65-1.08,1.52,1.52,0,0,0-.18-1.09,3,3,0,0,0-1.17-1"/>
      <path class="cls-3" d="M596.74,401.42a1.51,1.51,0,0,1-.66-.6.81.81,0,0,1,0-.63,1.5,1.5,0,0,1,.45-.59,5,5,0,0,1,.77-.55,6.41,6.41,0,0,1,1-.45,4.12,4.12,0,0,1,1-.27,4.34,4.34,0,0,1,1.08,0,3.05,3.05,0,0,1,1.06.37,1.47,1.47,0,0,1,.64.62.71.71,0,0,1,0,.62,1.53,1.53,0,0,1-.45.61,5.93,5.93,0,0,1-.78.54,6.29,6.29,0,0,1-.94.45,4.1,4.1,0,0,1-1,.26,3.33,3.33,0,0,1-1.09,0,2.84,2.84,0,0,1-1-.38m6.17-3.58a6.89,6.89,0,0,0-1.83-.74,7.93,7.93,0,0,0-4,0,7.31,7.31,0,0,0-1.85.77A4.3,4.3,0,0,0,594,399a1.86,1.86,0,0,0-.44,1.14,1.79,1.79,0,0,0,.43,1.14,4.34,4.34,0,0,0,1.29,1.05,7.34,7.34,0,0,0,1.83.75,7.74,7.74,0,0,0,3.94,0,7.44,7.44,0,0,0,1.85-.76,4.6,4.6,0,0,0,1.31-1.08,1.72,1.72,0,0,0,0-2.29,4.36,4.36,0,0,0-1.3-1.06"/>
      <path class="cls-3" d="M612.3,403.26a3.73,3.73,0,0,0-.84-.36,5.26,5.26,0,0,0-1-.2,6.11,6.11,0,0,0-1.05,0,5.23,5.23,0,0,0-1,.15l0,0,1.36-.78-1.92-1.11-7.29,4.24,2,1.16,3.29-1.91a6.65,6.65,0,0,1,1-.48,4.35,4.35,0,0,1,1.07-.23,3.54,3.54,0,0,1,1.12.06,3.63,3.63,0,0,1,1.12.44l.37.23.28.22,1.86-1.08a1.48,1.48,0,0,0-.37-.29"/>
      <path class="cls-3" d="M618.08,404.29l-2-1.16-2.19,1.27-1.22-.71-1.34.78,1.22.71-4.3,2.5a1.75,1.75,0,0,0-.7.62.62.62,0,0,0,0,.59,1.68,1.68,0,0,0,.49.57,8.33,8.33,0,0,0,.82.55l.63.35.62.29,1.55-.91-.34-.14-.34-.18c-.34-.2-.51-.36-.51-.49s.17-.3.5-.5l3.61-2.09,1.48.85,1.34-.78-1.48-.85,2.19-1.27"/>
      <path class="cls-3" d="M615.13,412.24a4,4,0,0,1-.43-.3.85.85,0,0,1-.25-.31.42.42,0,0,1,0-.33.85.85,0,0,1,.35-.32,1.58,1.58,0,0,1,.57-.21,1.77,1.77,0,0,1,.56,0,2.3,2.3,0,0,1,.57.11,5.44,5.44,0,0,1,.57.19l.54.23.54.23.52.18a2.09,2.09,0,0,0,.49.08l-.74.43-.49.25a3.36,3.36,0,0,1-.75.21,3.85,3.85,0,0,1-1,0,3.33,3.33,0,0,1-1.11-.42m6.76-3.44a9.64,9.64,0,0,0-1.33-.64,7.42,7.42,0,0,0-1.49-.39,5.66,5.66,0,0,0-1.54,0,4.54,4.54,0,0,0-1.52.47l2,1.17a2.45,2.45,0,0,1,1.24-.27,2.84,2.84,0,0,1,1.2.4,3.48,3.48,0,0,1,.47.31.8.8,0,0,1,.27.32.42.42,0,0,1,0,.33,1,1,0,0,1-.41.36,1,1,0,0,1-.66.17,3.08,3.08,0,0,1-.79-.16c-.28-.11-.58-.23-.9-.38s-.66-.31-1-.45-.72-.29-1.09-.41a5.23,5.23,0,0,0-1.16-.25,4.52,4.52,0,0,0-1.21,0,3.66,3.66,0,0,0-1.23.47,2.19,2.19,0,0,0-.79.68.92.92,0,0,0-.14.69,1.44,1.44,0,0,0,.4.7,3.75,3.75,0,0,0,.85.63,8.2,8.2,0,0,0,1.53.66,6.35,6.35,0,0,0,1.82.25l-.3.24a2.13,2.13,0,0,0-.26.26l2,1.17a1.34,1.34,0,0,1,.48-.5,9.59,9.59,0,0,1,.88-.59l3.8-2.2a1.52,1.52,0,0,0,.76-.79,1,1,0,0,0-.14-.81,2.9,2.9,0,0,0-.73-.77,9.51,9.51,0,0,0-1.05-.69"/>
      <path class="cls-3" d="M631.22,411.87l-2-1.16L627,412l-1.22-.7-1.34.78,1.22.7-4.3,2.5a1.87,1.87,0,0,0-.71.62.65.65,0,0,0,0,.59,1.6,1.6,0,0,0,.49.58,8.34,8.34,0,0,0,.82.54l.62.35.63.29,1.55-.9-.34-.14-.34-.18c-.34-.2-.51-.37-.51-.5s.17-.29.5-.49l3.61-2.1,1.48.85,1.34-.77-1.48-.85,2.19-1.28"/>
      <path class="cls-3" d="M633.54,415.75l-2-1.16-7.29,4.23,2,1.17,7.28-4.24m2.78-1.61-2-1.17-1.64,1,2,1.17,1.65-1"/>
      <path class="cls-3" d="M632.71,422.2a1.61,1.61,0,0,1-.65-.61.75.75,0,0,1,0-.62,1.63,1.63,0,0,1,.45-.6,4.59,4.59,0,0,1,.77-.55,7.39,7.39,0,0,1,.94-.45,4.36,4.36,0,0,1,1-.26,3.83,3.83,0,0,1,1.07,0,3.14,3.14,0,0,1,1,.37,1.48,1.48,0,0,1,.66.62.79.79,0,0,1,0,.62,1.56,1.56,0,0,1-.46.61,4.56,4.56,0,0,1-.77.54,5.44,5.44,0,0,1-.94.45,4.6,4.6,0,0,1-1,.27,4,4,0,0,1-1.09,0,3.38,3.38,0,0,1-1.06-.38m6.18-3.59a7.25,7.25,0,0,0-1.83-.74,8.23,8.23,0,0,0-2-.24,7.86,7.86,0,0,0-2,.26,7.31,7.31,0,0,0-1.85.77,4.33,4.33,0,0,0-1.31,1.07,1.82,1.82,0,0,0-.44,1.14,1.76,1.76,0,0,0,.42,1.14,4.44,4.44,0,0,0,1.29,1.05,7.13,7.13,0,0,0,1.84.75,7.66,7.66,0,0,0,2,.25,7.78,7.78,0,0,0,2-.26,7.44,7.44,0,0,0,1.85-.76,4.66,4.66,0,0,0,1.32-1.08,2,2,0,0,0,.44-1.14,1.87,1.87,0,0,0-.43-1.15,4.2,4.2,0,0,0-1.29-1.06"/>
      <path class="cls-3" d="M648.2,424a5.29,5.29,0,0,0-1.53-.55,5.65,5.65,0,0,0-1.93,0l0,0,1-.59-1.91-1.11-7.29,4.24,2,1.16,3.82-2.22a4.92,4.92,0,0,1,2-.72,2.85,2.85,0,0,1,1.67.41q.74.42.57.84a2.34,2.34,0,0,1-1.06.95l-4.12,2.39,2,1.16,4.49-2.61a6.65,6.65,0,0,0,1.11-.78,1.6,1.6,0,0,0,.53-.79,1,1,0,0,0-.21-.82,3.53,3.53,0,0,0-1.11-.9"/>
      <path class="cls-3" d="M533.52,383.89l6.34-3.69,1.59.92a3.55,3.55,0,0,1,1.16.93,1.18,1.18,0,0,1,.23.91,1.79,1.79,0,0,1-.56.9,7.7,7.7,0,0,1-2.85,1.58,6.36,6.36,0,0,1-1.5.21,4.7,4.7,0,0,1-1.33-.17,4.45,4.45,0,0,1-1.09-.45l-2-1.14m10.35-3.53-4.38-2.53-10.06,5.85,4.38,2.52a8.13,8.13,0,0,0,2.41.95,9.57,9.57,0,0,0,2.5.2,9.92,9.92,0,0,0,2.46-.43,11.35,11.35,0,0,0,2.31-1,6.55,6.55,0,0,0,1.84-1.47,2.29,2.29,0,0,0,.58-1.46,2.11,2.11,0,0,0-.53-1.38,5.18,5.18,0,0,0-1.51-1.23"/>
      <path class="cls-3" d="M545.82,388a3.2,3.2,0,0,1,.57-.23,3,3,0,0,1,.78-.14,3.57,3.57,0,0,1,.91.06,3.22,3.22,0,0,1,1,.37c.49.28.72.57.7.86a1.55,1.55,0,0,1-.65,1L545.82,388m4.79-.78a6.16,6.16,0,0,0-1.82-.71,8.55,8.55,0,0,0-4,.05,6.94,6.94,0,0,0-1.79.73,4.58,4.58,0,0,0-1.29,1.05,1.92,1.92,0,0,0-.46,1.14,1.7,1.7,0,0,0,.38,1.13,4.24,4.24,0,0,0,1.3,1.06,7,7,0,0,0,2.69.9,7.87,7.87,0,0,0,3.18-.33l-1.78-1a3.07,3.07,0,0,1-1.18.06,3.45,3.45,0,0,1-1.35-.43c-.57-.33-.86-.67-.87-1s.29-.71.91-1.11l5.3,3.06a5.86,5.86,0,0,0,1.47-1,2.51,2.51,0,0,0,.74-1.17,1.56,1.56,0,0,0-.18-1.22,3.15,3.15,0,0,0-1.27-1.15"/>
      <path class="cls-3" d="M558.38,391.72a8.87,8.87,0,0,0-1.28-.61,5.82,5.82,0,0,0-1.39-.38,5.34,5.34,0,0,0-1.44,0,3.77,3.77,0,0,0-1.42.52,1.3,1.3,0,0,0-.62.58.83.83,0,0,0,0,.62,2,2,0,0,0,.39.63c.2.22.41.43.63.64a10,10,0,0,1,1.23,1.23c.25.32.23.57-.07.74a1.33,1.33,0,0,1-.57.19,3,3,0,0,1-.6,0,4,4,0,0,1-.59-.16,3.22,3.22,0,0,1-.49-.23,2.24,2.24,0,0,1-.5-.37,1.11,1.11,0,0,1-.28-.41.56.56,0,0,1,0-.42.91.91,0,0,1,.42-.4l-1.92-1.11a2.12,2.12,0,0,0-.88.9,1.24,1.24,0,0,0,0,.91,2.35,2.35,0,0,0,.67.87,6.53,6.53,0,0,0,1.12.79,8.85,8.85,0,0,0,1.35.64,6.32,6.32,0,0,0,1.48.38,5.38,5.38,0,0,0,1.55,0,4.24,4.24,0,0,0,1.49-.53,1.49,1.49,0,0,0,.65-.61.89.89,0,0,0,.06-.64,1.8,1.8,0,0,0-.37-.65,7.34,7.34,0,0,0-.62-.63l-.65-.59a5.68,5.68,0,0,1-.55-.54.91.91,0,0,1-.24-.45c0-.15.06-.27.24-.37a1.17,1.17,0,0,1,.48-.15,1.88,1.88,0,0,1,.47.05,1.9,1.9,0,0,1,.46.15l.39.2a1.91,1.91,0,0,1,.73.66c.13.23,0,.47-.34.71l1.91,1.11a2,2,0,0,0,.78-.86,1.19,1.19,0,0,0,0-.83,2.44,2.44,0,0,0-.62-.8,7.06,7.06,0,0,0-1-.73"/>
      <path class="cls-3" d="M564.86,395.69l-2-1.17-7.29,4.24,2,1.16,7.29-4.23m2.77-1.61-2-1.17-1.64,1,2,1.17,1.65-1"/>
      <path class="cls-3" d="M564.3,401.81a1.24,1.24,0,0,1-.59-.56.8.8,0,0,1,0-.59,1.43,1.43,0,0,1,.43-.56,4.58,4.58,0,0,1,.7-.49,5.92,5.92,0,0,1,.88-.41,3.92,3.92,0,0,1,1-.21,3.86,3.86,0,0,1,1,0,2.62,2.62,0,0,1,.9.32,1.54,1.54,0,0,1,.64.58.74.74,0,0,1,0,.6,1.65,1.65,0,0,1-.43.57,4.33,4.33,0,0,1-.77.54,3.69,3.69,0,0,1-.86.38,3.89,3.89,0,0,1-1,.19,3.66,3.66,0,0,1-1-.05,2.68,2.68,0,0,1-.92-.34m5.27-3.63a5.28,5.28,0,0,0-1.65-.61,7.16,7.16,0,0,0-1.79-.11,8.07,8.07,0,0,0-1.75.33,6.75,6.75,0,0,0-1.57.67,6.34,6.34,0,0,0-1.24.92,2.15,2.15,0,0,0-.61,1,1.31,1.31,0,0,0,.19,1,3.06,3.06,0,0,0,1.13,1,5.3,5.3,0,0,0,1.54.57,4.68,4.68,0,0,0,1.79,0l0,0-1,.55a3.61,3.61,0,0,1-1.66.53,3,3,0,0,1-1.76-.42,1.75,1.75,0,0,1-.72-.67c-.13-.25-.06-.51.22-.78l-2-1.15a1.67,1.67,0,0,0-.71.82,1.17,1.17,0,0,0,0,.86,2.63,2.63,0,0,0,.6.84,5.91,5.91,0,0,0,1,.71,8.57,8.57,0,0,0,2.35,1,7.08,7.08,0,0,0,2,.18,4.86,4.86,0,0,0,1.56-.31,7.12,7.12,0,0,0,1.12-.51l6.83-4-1.92-1.11-1,.57,0,0a1.08,1.08,0,0,0,0-1.05,2.69,2.69,0,0,0-1-.89"/>
      <path class="cls-3" d="M579.51,403.92a5.48,5.48,0,0,0-1.53-.55,5.35,5.35,0,0,0-1.92,0l0,0,1-.59-1.92-1.11-7.29,4.24,2,1.16,3.82-2.22a4.92,4.92,0,0,1,2-.72,2.88,2.88,0,0,1,1.68.41c.48.28.67.56.56.84a2.33,2.33,0,0,1-1.06.94l-4.11,2.4,2,1.16,4.48-2.61a7.23,7.23,0,0,0,1.12-.78,1.64,1.64,0,0,0,.52-.79,1,1,0,0,0-.21-.82,3.39,3.39,0,0,0-1.11-.9"/>
      <path class="cls-3" d="M588.14,411.18l2.83-1.64,2.44,1.41c.51.3.79.58.82.86s-.19.55-.68.84a2.75,2.75,0,0,1-1.48.41,3.14,3.14,0,0,1-1.49-.46l-2.44-1.42m7.78-.77-5.46-3.15L580.4,413.1l2.23,1.29,3.93-2.29,2.23,1.29c.56.32.83.63.83.91s-.21.6-.66.95-.74.54-1.15.81a3.73,3.73,0,0,0-.91.79l2.22,1.29a1.05,1.05,0,0,1,.29-.43,3.34,3.34,0,0,1,.52-.44c.2-.14.4-.28.61-.41l.54-.35a4.66,4.66,0,0,0,.65-.5,1.71,1.71,0,0,0,.45-.55.92.92,0,0,0-.23-1.17l0,0a5.44,5.44,0,0,0,2.21.14,5.5,5.5,0,0,0,1.92-.67A3,3,0,0,0,597,413a1.4,1.4,0,0,0,.28-.85,1.6,1.6,0,0,0-.34-.9,3.25,3.25,0,0,0-1-.83"/>
      <path class="cls-3" d="M602.5,414.21l-2-1.16-10.06,5.85,2,1.16,3.82-2.22a5,5,0,0,1,2-.72,2.86,2.86,0,0,1,1.68.41c.48.28.67.56.56.84a2.3,2.3,0,0,1-1.05.94l-4.12,2.4,2,1.16,4.48-2.61a6.12,6.12,0,0,0,1.11-.79,1.54,1.54,0,0,0,.53-.78,1,1,0,0,0-.21-.83,3.41,3.41,0,0,0-1.11-.89,4.71,4.71,0,0,0-1.45-.5,5.47,5.47,0,0,0-1.9,0l0,0,3.78-2.2"/>
      <path class="cls-3" d="M604.92,422.14a3.74,3.74,0,0,1,.58-.22,2.64,2.64,0,0,1,.78-.14,3.6,3.6,0,0,1,.91.06,3.06,3.06,0,0,1,1,.37c.49.28.72.57.7.86a1.56,1.56,0,0,1-.65,1l-3.29-1.89m4.8-.78a6.9,6.9,0,0,0-1.82-.71,8.45,8.45,0,0,0-2-.21,8.22,8.22,0,0,0-2,.27,6.94,6.94,0,0,0-1.79.73,4.15,4.15,0,0,0-1.29,1.05,1.87,1.87,0,0,0-.46,1.13,1.71,1.71,0,0,0,.38,1.14,4.48,4.48,0,0,0,1.29,1.06,7.07,7.07,0,0,0,2.7.9,7.66,7.66,0,0,0,3.17-.34l-1.77-1a3.09,3.09,0,0,1-1.18.06,3.2,3.2,0,0,1-1.35-.43c-.57-.32-.86-.66-.88-1s.3-.71.91-1.1l5.3,3.05a5.92,5.92,0,0,0,1.48-1,2.59,2.59,0,0,0,.74-1.18,1.62,1.62,0,0,0-.18-1.22,3.29,3.29,0,0,0-1.27-1.15"/>
      <path class="cls-3" d="M619,424.43l-2-1.17-2.19,1.27-1.22-.71-1.34.79,1.22.7-4.3,2.5a1.75,1.75,0,0,0-.7.62.7.7,0,0,0,0,.6,1.59,1.59,0,0,0,.5.56,6.14,6.14,0,0,0,.82.55l.62.35c.22.11.42.21.63.29l1.55-.9a2.07,2.07,0,0,1-.34-.15,2.91,2.91,0,0,1-.35-.18c-.34-.19-.51-.36-.5-.49s.16-.29.5-.49l3.61-2.09,1.47.85,1.35-.78-1.48-.86,2.18-1.26"/>
      <path class="cls-3" d="M616.85,432.63a1.53,1.53,0,0,1-.65-.6.77.77,0,0,1,0-.63,1.76,1.76,0,0,1,.46-.6,5.1,5.1,0,0,1,.76-.54,8.36,8.36,0,0,1,1-.46,4.8,4.8,0,0,1,1-.26,4.35,4.35,0,0,1,1.08,0,3.08,3.08,0,0,1,1,.37,1.49,1.49,0,0,1,.65.61.77.77,0,0,1,0,.63,1.5,1.5,0,0,1-.44.6,5.7,5.7,0,0,1-.78.55,7.39,7.39,0,0,1-.94.45,5.12,5.12,0,0,1-1,.27,3.91,3.91,0,0,1-1.08,0,2.88,2.88,0,0,1-1.06-.38M623,429a7.54,7.54,0,0,0-1.84-.74,7.64,7.64,0,0,0-2-.23,7.78,7.78,0,0,0-2,.26,7.21,7.21,0,0,0-1.86.76,4.34,4.34,0,0,0-1.31,1.08,1.9,1.9,0,0,0-.44,1.14,1.93,1.93,0,0,0,.42,1.13,4.36,4.36,0,0,0,1.3,1.06,7.67,7.67,0,0,0,1.83.75,7.77,7.77,0,0,0,2,.25,8.19,8.19,0,0,0,2-.26,7.29,7.29,0,0,0,1.85-.76,4.52,4.52,0,0,0,1.32-1.08,1.89,1.89,0,0,0,.44-1.15,1.75,1.75,0,0,0-.43-1.14A4.29,4.29,0,0,0,623,429"/>
      <path class="cls-3" d="M632.42,434.47a3.62,3.62,0,0,0-.85-.36,5.32,5.32,0,0,0-1-.2,6.27,6.27,0,0,0-1.06,0,5.73,5.73,0,0,0-1,.15l0,0,1.36-.79-1.92-1.1-7.29,4.23,2,1.16,3.29-1.91a7.7,7.7,0,0,1,1-.47,5,5,0,0,1,1.08-.24,4.25,4.25,0,0,1,1.12.07,3.7,3.7,0,0,1,1.11.43l.37.24.29.23,1.86-1.09a1.28,1.28,0,0,0-.37-.29"/>
      <path class="cls-3" d="M635.53,436.49l-2-1.16-7.28,4.23,2,1.17,7.29-4.24m2.77-1.61-2-1.17-1.65,1,2,1.17,1.65-1"/>
      <path class="cls-3" d="M640.84,439.33a6.78,6.78,0,0,0-1.89-.75,8,8,0,0,0-2-.2,7.86,7.86,0,0,0-2,.31,7.55,7.55,0,0,0-1.82.77,4,4,0,0,0-1.23,1,1.94,1.94,0,0,0-.43,1.12,1.79,1.79,0,0,0,.4,1.12,4,4,0,0,0,1.24,1,7.13,7.13,0,0,0,6.51.31L637.69,443a4.19,4.19,0,0,1-1.57.34,2.85,2.85,0,0,1-1.52-.41,1.19,1.19,0,0,1-.58-.58.79.79,0,0,1,0-.62,1.87,1.87,0,0,1,.47-.59,3.87,3.87,0,0,1,.72-.51,5.92,5.92,0,0,1,.91-.43,5.06,5.06,0,0,1,1.05-.28,4.42,4.42,0,0,1,1.09,0,2.71,2.71,0,0,1,1,.33q1.29.75.24,1.59l2,1.14a2.29,2.29,0,0,0,.87-.9,1.31,1.31,0,0,0,.09-.95,2.22,2.22,0,0,0-.56-.92,4.94,4.94,0,0,0-1.08-.82"/>
      <path class="cls-3" d="M516.6,393.72,523,390l1.59.92a3.49,3.49,0,0,1,1.15.93,1.14,1.14,0,0,1,.23.91,1.77,1.77,0,0,1-.55.89,7.26,7.26,0,0,1-1.23.89,6.73,6.73,0,0,1-1.62.69,6,6,0,0,1-1.51.22,4.26,4.26,0,0,1-1.32-.17,4.53,4.53,0,0,1-1.1-.45l-2-1.14M527,390.18l-4.38-2.52-10.06,5.85,4.37,2.52a8.24,8.24,0,0,0,2.41,1,9.16,9.16,0,0,0,2.5.2,9.92,9.92,0,0,0,2.46-.43,10.91,10.91,0,0,0,2.32-1,6.35,6.35,0,0,0,1.84-1.47,2.43,2.43,0,0,0,.58-1.46,2.18,2.18,0,0,0-.53-1.38,5.36,5.36,0,0,0-1.51-1.24"/>
      <path class="cls-3" d="M526.9,400.49a2.34,2.34,0,0,1-.43-.3.88.88,0,0,1-.25-.31.33.33,0,0,1,0-.32.9.9,0,0,1,.34-.33,2.33,2.33,0,0,1,.57-.21,2.16,2.16,0,0,1,.57,0,3.17,3.17,0,0,1,.57.11l.56.19.56.24.53.23a5.08,5.08,0,0,0,.51.17,1.73,1.73,0,0,0,.49.08l-.75.44a3.48,3.48,0,0,1-.48.24,2.94,2.94,0,0,1-.74.21,3.08,3.08,0,0,1-1,0,3.17,3.17,0,0,1-1.12-.42m6.77-3.44a10.93,10.93,0,0,0-1.33-.63,7.14,7.14,0,0,0-1.49-.4,6.1,6.1,0,0,0-1.54,0,4.28,4.28,0,0,0-1.52.48l2,1.16a2.38,2.38,0,0,1,1.24-.26,2.74,2.74,0,0,1,1.19.39,4.79,4.79,0,0,1,.47.31.87.87,0,0,1,.27.32.41.41,0,0,1,0,.34,1.13,1.13,0,0,1-.42.36,1,1,0,0,1-.65.16,2.64,2.64,0,0,1-.78-.16c-.29-.1-.58-.23-.91-.38l-1-.45c-.35-.15-.71-.29-1.09-.41a5,5,0,0,0-1.15-.25,4.19,4.19,0,0,0-1.22.05,3.76,3.76,0,0,0-1.24.46,2.2,2.2,0,0,0-.77.68.91.91,0,0,0-.15.7,1.42,1.42,0,0,0,.4.69,4.37,4.37,0,0,0,.85.64,7.57,7.57,0,0,0,1.53.65,6,6,0,0,0,1.83.26,2.37,2.37,0,0,0-.3.23,1.6,1.6,0,0,0-.26.26l2,1.18a1.35,1.35,0,0,1,.48-.51,8.07,8.07,0,0,1,.89-.58l3.79-2.2a1.49,1.49,0,0,0,.76-.8,1,1,0,0,0-.14-.8,2.77,2.77,0,0,0-.73-.78,8.53,8.53,0,0,0-1-.69"/>
      <path class="cls-3" d="M542.65,402.23a4.89,4.89,0,0,0-1.54-.54,5.29,5.29,0,0,0-1.91,0l-.05,0,1-.59-1.92-1.11L531,404.16l2,1.16,3.82-2.22a4.73,4.73,0,0,1,2-.71,2.76,2.76,0,0,1,1.67.4q.73.42.57.84a2.34,2.34,0,0,1-1.06.95L535.83,407l2,1.16,4.48-2.6a7.29,7.29,0,0,0,1.11-.79A1.5,1.5,0,0,0,544,404a1,1,0,0,0-.21-.82,3.53,3.53,0,0,0-1.11-.9"/>
      <path class="cls-3" d="M550.38,406.7a7,7,0,0,0-1.89-.75,8.2,8.2,0,0,0-4,.11,8,8,0,0,0-1.82.77,3.93,3.93,0,0,0-1.23,1,1.72,1.72,0,0,0,0,2.24,4.1,4.1,0,0,0,1.24,1,7,7,0,0,0,3.16.94,7.09,7.09,0,0,0,3.35-.63l-1.95-1.12a4.15,4.15,0,0,1-1.56.35,3,3,0,0,1-1.52-.42,1.24,1.24,0,0,1-.58-.58.73.73,0,0,1,0-.61,1.82,1.82,0,0,1,.45-.59,5.52,5.52,0,0,1,.72-.52,7,7,0,0,1,.91-.43,4.71,4.71,0,0,1,1.06-.27,4,4,0,0,1,1.09,0,2.56,2.56,0,0,1,1,.34c.86.5.94,1,.24,1.58l2,1.14a2.33,2.33,0,0,0,.88-.9,1.34,1.34,0,0,0,.08-.94,2.09,2.09,0,0,0-.56-.93,5.35,5.35,0,0,0-1.09-.82"/>
      <path class="cls-3" d="M553.61,412.11a4.18,4.18,0,0,1,.57-.23,3.52,3.52,0,0,1,.77-.14,3.62,3.62,0,0,1,.92.06,2.93,2.93,0,0,1,1,.37c.49.29.72.57.71.87a1.56,1.56,0,0,1-.65,1l-3.28-1.89m4.79-.78a6.39,6.39,0,0,0-1.82-.71,9,9,0,0,0-2-.22,8.3,8.3,0,0,0-2,.27,7.47,7.47,0,0,0-1.79.73,4.53,4.53,0,0,0-1.28,1.05,2,2,0,0,0-.47,1.14,1.71,1.71,0,0,0,.39,1.13,4.34,4.34,0,0,0,1.29,1.07,7.24,7.24,0,0,0,2.69.89,7.67,7.67,0,0,0,3.18-.33l-1.77-1a2.92,2.92,0,0,1-1.19.07,3.58,3.58,0,0,1-1.34-.43c-.57-.33-.86-.67-.87-1s.29-.72.91-1.11l5.29,3.06a5.75,5.75,0,0,0,1.48-1,2.6,2.6,0,0,0,.74-1.17,1.56,1.56,0,0,0-.18-1.22,3.15,3.15,0,0,0-1.27-1.15"/>
      <polyline class="cls-3" points="580.8 421.27 577.66 419.46 568.5 422.19 568.47 422.17 573.02 416.78 569.89 414.97 559.82 420.82 561.91 422.03 568.97 417.92 569 417.94 564.42 423.48 566.14 424.47 575.75 421.76 575.78 421.77 568.65 425.92 570.73 427.12 580.8 421.27"/>
      <path class="cls-3" d="M577.35,429.42a1.48,1.48,0,0,1-.65-.6.73.73,0,0,1,0-.63,1.72,1.72,0,0,1,.46-.6,5.1,5.1,0,0,1,.76-.54,6.41,6.41,0,0,1,1-.45,4.83,4.83,0,0,1,1-.27,3.49,3.49,0,0,1,1.07,0,2.94,2.94,0,0,1,1,.37,1.43,1.43,0,0,1,.66.62.75.75,0,0,1,0,.62,1.56,1.56,0,0,1-.46.6,5.15,5.15,0,0,1-.78.55,6.67,6.67,0,0,1-.93.45,4.17,4.17,0,0,1-1,.26,3.26,3.26,0,0,1-1.08,0,3.08,3.08,0,0,1-1.06-.38m6.17-3.59a7,7,0,0,0-1.83-.74,7.69,7.69,0,0,0-2-.23,7.92,7.92,0,0,0-2,.26,7.31,7.31,0,0,0-1.85.77,4.18,4.18,0,0,0-1.31,1.07,1.78,1.78,0,0,0-.44,1.14,1.85,1.85,0,0,0,.42,1.14,4.61,4.61,0,0,0,1.29,1.05,7.13,7.13,0,0,0,1.84.75,7.74,7.74,0,0,0,3.94,0,7.29,7.29,0,0,0,1.85-.76,4.52,4.52,0,0,0,1.32-1.08,1.88,1.88,0,0,0,.44-1.14,1.86,1.86,0,0,0-.42-1.15,4.27,4.27,0,0,0-1.3-1.07"/>
      <polyline class="cls-3" points="594.98 432.68 592.97 431.52 586.45 433.52 586.42 433.5 589.85 429.72 587.74 428.5 582.97 434.18 585.21 435.48 594.98 432.68"/>
      <path class="cls-3" d="M594.61,435.78a4.18,4.18,0,0,1,.57-.23,3.5,3.5,0,0,1,.78-.14,3.57,3.57,0,0,1,.91.06,3,3,0,0,1,1,.38c.5.28.73.57.71.86a1.56,1.56,0,0,1-.65,1l-3.28-1.89m4.79-.78a6.69,6.69,0,0,0-1.82-.71,8.41,8.41,0,0,0-4,.06,6.87,6.87,0,0,0-1.79.73,4.34,4.34,0,0,0-1.28,1.05,2,2,0,0,0-.47,1.13,1.81,1.81,0,0,0,.39,1.14,4.46,4.46,0,0,0,1.29,1.06,7.08,7.08,0,0,0,2.69.9,7.9,7.9,0,0,0,3.19-.34l-1.77-1a3.15,3.15,0,0,1-1.19.06,3.63,3.63,0,0,1-1.35-.43c-.57-.33-.86-.66-.87-1s.29-.71.92-1.1l5.29,3.05a5.85,5.85,0,0,0,1.47-1,2.59,2.59,0,0,0,.74-1.18,1.57,1.57,0,0,0-.18-1.22A3.22,3.22,0,0,0,599.4,435"/>
      <path class="cls-3" d="M612.74,442.7a4.42,4.42,0,0,0-1.7-.55,7.74,7.74,0,0,0-1.73,0,.9.9,0,0,0,.08-1.05,2.84,2.84,0,0,0-1-.89,4.62,4.62,0,0,0-1.6-.56,6.6,6.6,0,0,0-1.84-.05l0,0,1-.57-1.91-1.1-7.29,4.24,2,1.16,4.23-2.46a3.82,3.82,0,0,1,1-.41,3.1,3.1,0,0,1,.88-.08,3.28,3.28,0,0,1,.7.12,3.8,3.8,0,0,1,.44.18c.32.19.52.36.57.52a.44.44,0,0,1-.08.45,1.56,1.56,0,0,1-.46.41l-.63.39-4.09,2.37,2,1.17,4.06-2.36a5.41,5.41,0,0,1,.72-.37,3.56,3.56,0,0,1,.79-.22,2.57,2.57,0,0,1,.83,0,2.35,2.35,0,0,1,.85.3,1.37,1.37,0,0,1,.54.47.52.52,0,0,1,0,.44,1.24,1.24,0,0,1-.41.42l-.66.42-4.13,2.4,2,1.16,4.87-2.83a3.59,3.59,0,0,0,1-.82,1.15,1.15,0,0,0,.26-.79,1.39,1.39,0,0,0-.4-.75,4.35,4.35,0,0,0-.94-.71"/>
      <path class="cls-3" d="M615.61,447.9a4.29,4.29,0,0,1,.57-.22,3,3,0,0,1,.77-.14,3.62,3.62,0,0,1,.92.06,2.85,2.85,0,0,1,1,.37c.5.28.73.57.71.86a1.56,1.56,0,0,1-.65,1l-3.28-1.89m4.79-.77a6.39,6.39,0,0,0-1.82-.71,8.4,8.4,0,0,0-2-.22,8.3,8.3,0,0,0-2,.27,7.24,7.24,0,0,0-1.79.73,4.53,4.53,0,0,0-1.28,1.05,1.88,1.88,0,0,0-.47,1.13,1.72,1.72,0,0,0,.39,1.14,4.33,4.33,0,0,0,1.29,1.06,7.08,7.08,0,0,0,2.69.9,7.69,7.69,0,0,0,3.18-.34l-1.77-1a2.93,2.93,0,0,1-1.19.06,3.25,3.25,0,0,1-1.34-.43c-.57-.33-.86-.66-.87-1s.29-.71.91-1.1l5.29,3.05a5.66,5.66,0,0,0,1.48-1,2.71,2.71,0,0,0,.74-1.17,1.61,1.61,0,0,0-.18-1.22,3.15,3.15,0,0,0-1.27-1.15"/>
      <path class="cls-3" d="M629.35,452.29a5.25,5.25,0,0,0-1.54-.55,5.52,5.52,0,0,0-1.91,0l0,0,1-.59L625,450l-7.28,4.24,2,1.16,3.82-2.22a4.73,4.73,0,0,1,2-.71,2.79,2.79,0,0,1,1.68.4c.48.28.67.56.56.84a2.33,2.33,0,0,1-1.06.94l-4.12,2.4,2,1.16,4.48-2.6a6.82,6.82,0,0,0,1.11-.79,1.6,1.6,0,0,0,.53-.79,1,1,0,0,0-.21-.82,3.29,3.29,0,0,0-1.11-.9"/>
      <path class="cls-3" d="M638.11,455.05l-2-1.17-2.18,1.27-1.22-.7-1.34.77,1.22.71-4.3,2.5a1.8,1.8,0,0,0-.71.62.65.65,0,0,0,0,.59,1.59,1.59,0,0,0,.49.57,5.69,5.69,0,0,0,.83.55c.19.12.4.23.61.35s.43.21.63.29l1.55-.9c-.11-.05-.23-.09-.34-.15a2.79,2.79,0,0,1-.34-.18c-.34-.19-.51-.36-.51-.49s.17-.29.51-.49l3.61-2.1,1.47.85,1.34-.77-1.48-.86,2.19-1.26"/>
      <polyline class="cls-3" points="513.25 401.87 505.67 397.49 495.6 403.34 503.29 407.78 505.16 406.7 499.69 403.54 502.16 402.11 507.07 404.94 508.79 403.95 503.88 401.11 506.04 399.86 511.39 402.95 513.25 401.87"/>
      <path class="cls-3" d="M516.27,406.6a5.25,5.25,0,0,0-1.54-.55,5.53,5.53,0,0,0-1.91,0l-.05,0,1-.59-1.92-1.11-7.29,4.24,2,1.16,3.83-2.22a4.88,4.88,0,0,1,2-.72,2.83,2.83,0,0,1,1.67.41q.74.42.57.84a2.33,2.33,0,0,1-1.06.94l-4.12,2.4,2,1.16,4.48-2.6a6.82,6.82,0,0,0,1.11-.79,1.55,1.55,0,0,0,.52-.79,1,1,0,0,0-.2-.82,3.39,3.39,0,0,0-1.11-.9"/>
      <polyline class="cls-3" points="526.83 412.93 524.83 411.77 518.31 413.77 518.28 413.75 521.7 409.97 519.59 408.75 514.81 414.43 517.05 415.73 526.83 412.93"/>
      <path class="cls-3" d="M529.74,414.61l-2-1.17-7.29,4.24,2,1.16,7.29-4.23m2.77-1.62-2-1.16-1.65.95,2,1.17,1.64-1"/>
      <path class="cls-3" d="M535.81,417.88a4.62,4.62,0,0,0-.85-.36,6.3,6.3,0,0,0-1-.2,6.14,6.14,0,0,0-1.05,0,5.35,5.35,0,0,0-1,.14l0,0,1.35-.78-1.91-1.11L524,419.76l2,1.16,3.28-1.91a5.63,5.63,0,0,1,1-.47,3.88,3.88,0,0,1,1.06-.24,3.83,3.83,0,0,1,2.24.5,3.17,3.17,0,0,1,.36.23,2.11,2.11,0,0,1,.3.23l1.86-1.08a2,2,0,0,0-.37-.3"/>
      <path class="cls-3" d="M534.17,424.09a1.53,1.53,0,0,1-.65-.6.73.73,0,0,1,0-.63,1.68,1.68,0,0,1,.44-.6,6,6,0,0,1,.78-.55,8.17,8.17,0,0,1,.94-.45,4.8,4.8,0,0,1,1-.26,3.49,3.49,0,0,1,1.07,0,2.8,2.8,0,0,1,1.06.37,1.43,1.43,0,0,1,.65.61.77.77,0,0,1,0,.63,1.47,1.47,0,0,1-.46.6,4.59,4.59,0,0,1-.77.55,6.29,6.29,0,0,1-.94.45,4.53,4.53,0,0,1-1,.26,3.56,3.56,0,0,1-1.08,0,3,3,0,0,1-1.06-.38m6.18-3.59a7.25,7.25,0,0,0-1.83-.74,8.23,8.23,0,0,0-2-.24,8.81,8.81,0,0,0-2,.26,7.7,7.7,0,0,0-1.85.77,4.67,4.67,0,0,0-1.32,1.07,1.81,1.81,0,0,0-.43,1.15,1.75,1.75,0,0,0,.42,1.13,4.35,4.35,0,0,0,1.29,1.06,7.67,7.67,0,0,0,1.83.75,7.89,7.89,0,0,0,3.94,0,7.29,7.29,0,0,0,1.85-.76,4.66,4.66,0,0,0,1.32-1.08,1.84,1.84,0,0,0,.44-1.14,1.79,1.79,0,0,0-.42-1.14,4.34,4.34,0,0,0-1.29-1.07"/>
      <path class="cls-3" d="M549.65,425.88a5.08,5.08,0,0,0-1.53-.56,5.59,5.59,0,0,0-1.92,0l0,0,1-.59-1.91-1.1L538,427.8l2,1.16,3.82-2.22a4.83,4.83,0,0,1,2-.71,2.85,2.85,0,0,1,1.68.4c.49.29.67.56.56.85a2.39,2.39,0,0,1-1.06.94l-4.12,2.39,2,1.17,4.49-2.61a7.1,7.1,0,0,0,1.11-.79,1.57,1.57,0,0,0,.52-.79,1,1,0,0,0-.2-.82,3.56,3.56,0,0,0-1.12-.89"/>
      <path class="cls-3" d="M562.45,433.27a4.38,4.38,0,0,0-1.69-.56,7.83,7.83,0,0,0-1.74,0,.91.91,0,0,0,.08-1.05,3,3,0,0,0-1-.89,4.64,4.64,0,0,0-1.59-.56,7,7,0,0,0-1.84-.05l0,0,1-.57-1.9-1.09-7.29,4.23,2,1.17,4.23-2.46a3.5,3.5,0,0,1,1-.42,4,4,0,0,1,.88-.08,2.65,2.65,0,0,1,.69.13,2.27,2.27,0,0,1,.44.18c.32.19.52.36.57.51a.48.48,0,0,1-.07.46,1.75,1.75,0,0,1-.47.41c-.2.13-.4.26-.62.38L551,435.35l2,1.16,4.06-2.36q.35-.19.72-.36a3.24,3.24,0,0,1,.79-.23,2.89,2.89,0,0,1,.83,0,2.19,2.19,0,0,1,.85.31,1.23,1.23,0,0,1,.54.47.52.52,0,0,1,0,.44,1.27,1.27,0,0,1-.42.41,6.32,6.32,0,0,1-.66.42l-4.12,2.4,2,1.16,4.87-2.83a3.18,3.18,0,0,0,1-.82,1.15,1.15,0,0,0,.26-.79,1.3,1.3,0,0,0-.4-.75,4,4,0,0,0-.94-.7"/>
      <path class="cls-3" d="M565.32,438.47a3.68,3.68,0,0,1,.58-.23,3.4,3.4,0,0,1,.78-.14,3.63,3.63,0,0,1,.91.06,2.93,2.93,0,0,1,1,.37c.49.28.73.57.71.87a1.58,1.58,0,0,1-.66,1l-3.28-1.89m4.79-.78a6.45,6.45,0,0,0-1.82-.71,8.31,8.31,0,0,0-2-.21,7.74,7.74,0,0,0-2,.26,7.31,7.31,0,0,0-1.79.73,4.36,4.36,0,0,0-1.3,1.06,2.09,2.09,0,0,0-.47,1.13,1.78,1.78,0,0,0,.4,1.13,4.07,4.07,0,0,0,1.29,1.06,7,7,0,0,0,2.68.9,7.89,7.89,0,0,0,3.19-.33l-1.78-1a2.82,2.82,0,0,1-1.17.07,3.45,3.45,0,0,1-1.36-.43c-.57-.33-.86-.67-.87-1s.29-.72.91-1.11l5.3,3.06a6.12,6.12,0,0,0,1.48-1,2.65,2.65,0,0,0,.74-1.17,1.65,1.65,0,0,0-.18-1.22,3.19,3.19,0,0,0-1.28-1.15"/>
      <path class="cls-3" d="M579.06,442.86a5.19,5.19,0,0,0-1.53-.56,5.59,5.59,0,0,0-1.92,0l0,0,1-.58-1.92-1.11-7.29,4.23,2,1.17,3.83-2.23a4.73,4.73,0,0,1,2-.71,2.79,2.79,0,0,1,1.67.41c.48.27.68.55.56.83a2.28,2.28,0,0,1-1.06.95l-4.11,2.39,2,1.16,4.48-2.6a5.79,5.79,0,0,0,1.11-.79,1.44,1.44,0,0,0,.53-.79,1,1,0,0,0-.21-.82,3.18,3.18,0,0,0-1.11-.89"/>
      <path class="cls-3" d="M587.82,445.61l-2-1.16-2.19,1.27L582.4,445l-1.34.78,1.22.71L578,449a1.87,1.87,0,0,0-.71.62.7.7,0,0,0,0,.6,1.92,1.92,0,0,0,.49.57,7.47,7.47,0,0,0,.83.55l.61.34.63.3,1.55-.91-.33-.14-.34-.18c-.35-.2-.51-.36-.51-.5s.16-.29.5-.49l3.61-2.09,1.47.85,1.34-.78-1.48-.85,2.19-1.27"/>
      <path class="cls-3" d="M584.86,453.55a3.44,3.44,0,0,1-.42-.29,1.1,1.1,0,0,1-.25-.31.42.42,0,0,1,0-.33.92.92,0,0,1,.35-.32,1.65,1.65,0,0,1,.57-.21,1.77,1.77,0,0,1,.56,0,2.29,2.29,0,0,1,.58.11,5.27,5.27,0,0,1,.56.19l.55.23c.18.09.36.16.53.23s.35.13.52.17a1.82,1.82,0,0,0,.5.09l-.75.43a4.52,4.52,0,0,1-.49.24,2.55,2.55,0,0,1-.75.21,3,3,0,0,1-1,0,3.09,3.09,0,0,1-1.13-.42m6.77-3.44a10.11,10.11,0,0,0-1.32-.63,7.79,7.79,0,0,0-1.49-.39,5.67,5.67,0,0,0-1.54,0,4.52,4.52,0,0,0-1.53.47l2,1.16a2.48,2.48,0,0,1,1.24-.26,2.85,2.85,0,0,1,1.19.4,4.81,4.81,0,0,1,.47.3,1,1,0,0,1,.27.32.41.41,0,0,1,0,.34,1,1,0,0,1-.4.36,1,1,0,0,1-.66.17,2.74,2.74,0,0,1-.79-.17c-.28-.1-.58-.22-.9-.37s-.66-.31-1-.46-.71-.28-1.09-.41a5.74,5.74,0,0,0-1.15-.24,4.11,4.11,0,0,0-1.21,0,3.73,3.73,0,0,0-1.25.46,2.26,2.26,0,0,0-.78.69.92.92,0,0,0-.14.69,1.43,1.43,0,0,0,.39.69,4.09,4.09,0,0,0,.87.64,7,7,0,0,0,1.52.65,6,6,0,0,0,1.82.26,3.5,3.5,0,0,0-.3.24,2,2,0,0,0-.25.25l2,1.18a1.64,1.64,0,0,1,.48-.51c.27-.19.57-.39.9-.58l3.79-2.2a1.48,1.48,0,0,0,.76-.79,1,1,0,0,0-.14-.81,2.62,2.62,0,0,0-.73-.77,11.27,11.27,0,0,0-1-.7"/>
      <polyline class="cls-3" points="601.07 452.57 599.05 451.41 588.99 457.26 591.01 458.42 601.07 452.57"/>
      <path class="cls-3" d="M612.74,459.31,610.52,458l-6.8,3.94c-.18.11-.37.21-.58.32a2.71,2.71,0,0,1-.66.23,2.06,2.06,0,0,1-.75,0,2.36,2.36,0,0,1-.83-.31,1.33,1.33,0,0,1-.52-.44.51.51,0,0,1,0-.43,1,1,0,0,1,.34-.42,4,4,0,0,1,.61-.42l.45-.27-2-1.16-.87.5a3.21,3.21,0,0,0-1.14,1,1.37,1.37,0,0,0-.21,1,2,2,0,0,0,.52.94,4.77,4.77,0,0,0,1.06.81,6.91,6.91,0,0,0,2.15.85,6.73,6.73,0,0,0,1.88.08,5.57,5.57,0,0,0,1.56-.38,9.36,9.36,0,0,0,1.18-.57l6.89-4"/>
      <path class="cls-3" d="M618.59,465.91l-2-1.16L612.76,467a4.58,4.58,0,0,1-2,.72,2.84,2.84,0,0,1-1.67-.4q-.74-.42-.57-.84a2.34,2.34,0,0,1,1.06-.95l4.12-2.39-2-1.16-4.47,2.6a5.89,5.89,0,0,0-1.12.79,1.56,1.56,0,0,0-.53.79,1,1,0,0,0,.22.81,3.56,3.56,0,0,0,1.12.89,4.86,4.86,0,0,0,1.52.56,5.3,5.3,0,0,0,1.91,0l0,0-1,.59,1.91,1.1,7.29-4.23"/>
      <path class="cls-3" d="M623.33,468.42a8.31,8.31,0,0,0-1.27-.62,5.94,5.94,0,0,0-1.39-.37,4.89,4.89,0,0,0-1.43,0,4.09,4.09,0,0,0-1.44.51,1.33,1.33,0,0,0-.61.59.83.83,0,0,0,0,.62,2.16,2.16,0,0,0,.39.63,6.24,6.24,0,0,0,.63.63,11.6,11.6,0,0,1,1.23,1.23c.25.33.23.58-.07.75a1.46,1.46,0,0,1-.57.18,2.4,2.4,0,0,1-.6,0,3,3,0,0,1-.59-.15,3.75,3.75,0,0,1-.49-.23,2.26,2.26,0,0,1-.5-.38,1,1,0,0,1-.28-.41.57.57,0,0,1,0-.42,1,1,0,0,1,.42-.4l-1.91-1.1a2.13,2.13,0,0,0-.9.9,1.27,1.27,0,0,0,0,.9,2.7,2.7,0,0,0,.66.88,8.33,8.33,0,0,0,1.13.79,11,11,0,0,0,1.34.64,6.58,6.58,0,0,0,1.5.37,5.68,5.68,0,0,0,1.54,0,4.44,4.44,0,0,0,1.49-.53,1.54,1.54,0,0,0,.66-.62.92.92,0,0,0,.05-.63,1.72,1.72,0,0,0-.37-.65,7.42,7.42,0,0,0-.62-.64c-.21-.2-.44-.39-.66-.58a6.86,6.86,0,0,1-.54-.54.89.89,0,0,1-.24-.46c0-.14.06-.26.24-.37a1.16,1.16,0,0,1,.47-.14,2.45,2.45,0,0,1,.48,0,2.51,2.51,0,0,1,.46.16l.39.2a1.91,1.91,0,0,1,.73.66c.13.23,0,.47-.34.71l1.91,1.1a1.92,1.92,0,0,0,.77-.85,1.16,1.16,0,0,0,0-.84,2.2,2.2,0,0,0-.62-.79,7.18,7.18,0,0,0-1-.73"/>
      <path class="cls-3" d="M632.49,471.4l-2-1.17-2.19,1.27-1.22-.7-1.33.78,1.22.7-4.31,2.5a1.83,1.83,0,0,0-.7.62.64.64,0,0,0,0,.6,1.62,1.62,0,0,0,.48.56,7,7,0,0,0,.83.55c.19.12.41.23.62.35s.43.21.63.29l1.55-.9-.34-.15a2.79,2.79,0,0,1-.34-.18c-.34-.19-.51-.36-.51-.49s.17-.29.5-.49l3.61-2.1,1.48.86,1.34-.78-1.48-.85,2.19-1.27"/>
      <path class="cls-3" d="M634.81,475.27l-2-1.16-7.29,4.23,2,1.16,7.29-4.23m2.78-1.62-2-1.16-1.65,1,2,1.16,1.65-1"/>
      <path class="cls-3" d="M640.11,478.1a6.76,6.76,0,0,0-1.88-.74,7.51,7.51,0,0,0-2-.2,7.79,7.79,0,0,0-2,.31,7.55,7.55,0,0,0-1.82.77,3.93,3.93,0,0,0-1.23,1,1.92,1.92,0,0,0-.43,1.12,1.81,1.81,0,0,0,.4,1.12,3.85,3.85,0,0,0,1.24,1,6.85,6.85,0,0,0,3.15,1,7.32,7.32,0,0,0,3.35-.63L637,481.72a3.93,3.93,0,0,1-1.56.35,3,3,0,0,1-1.52-.41,1.28,1.28,0,0,1-.58-.58.83.83,0,0,1,0-.62,1.86,1.86,0,0,1,.46-.59,4.66,4.66,0,0,1,.72-.51,6.83,6.83,0,0,1,.9-.43,5.52,5.52,0,0,1,1.06-.28,4.43,4.43,0,0,1,1.09,0,2.71,2.71,0,0,1,1,.34c.86.5.94,1,.23,1.59l2,1.14a2.32,2.32,0,0,0,.88-.9,1.37,1.37,0,0,0,.09-.95,2.2,2.2,0,0,0-.56-.92,5.11,5.11,0,0,0-1.1-.83"/>
      <path class="cls-3" d="M643.34,483.51a4.37,4.37,0,0,1,.58-.23,3.93,3.93,0,0,1,.77-.14,3.6,3.6,0,0,1,.91.07,3.1,3.1,0,0,1,1,.36c.49.29.72.58.7.87a1.56,1.56,0,0,1-.65,1l-3.28-1.89m4.79-.78a6.57,6.57,0,0,0-1.82-.71,8.54,8.54,0,0,0-4,.05,7.47,7.47,0,0,0-1.79.73,4.6,4.6,0,0,0-1.29,1.06,2.09,2.09,0,0,0-.47,1.13,1.82,1.82,0,0,0,.4,1.14,4.35,4.35,0,0,0,1.29,1.06,7,7,0,0,0,2.68.9,7.73,7.73,0,0,0,3.19-.34l-1.77-1a3,3,0,0,1-1.19.06,3.3,3.3,0,0,1-1.35-.43c-.57-.33-.86-.66-.86-1s.28-.71.91-1.1l5.29,3.05a5.84,5.84,0,0,0,1.48-1,2.56,2.56,0,0,0,.73-1.18,1.57,1.57,0,0,0-.18-1.22,3.15,3.15,0,0,0-1.27-1.15"/>
      <path class="cls-3" d="M493.54,409.81a8.86,8.86,0,0,0-2.5-1,10.74,10.74,0,0,0-2.7-.25,11.44,11.44,0,0,0-2.67.42,10.31,10.31,0,0,0-2.44,1,6.1,6.1,0,0,0-1.7,1.39,2.7,2.7,0,0,0-.68,1.52,2.44,2.44,0,0,0,.46,1.55,5.13,5.13,0,0,0,1.7,1.45,8.58,8.58,0,0,0,2,.82,8.76,8.76,0,0,0,2.18.31,9.41,9.41,0,0,0,2.23-.21,9.51,9.51,0,0,0,2.14-.74l-2.16-1.25a5.68,5.68,0,0,1-2.33.55,4.2,4.2,0,0,1-2.22-.56,2.35,2.35,0,0,1-1-.9,1.2,1.2,0,0,1-.09-.94,2.09,2.09,0,0,1,.61-.9,5.45,5.45,0,0,1,1.07-.81,10,10,0,0,1,1.44-.66,7.72,7.72,0,0,1,1.58-.37,5.94,5.94,0,0,1,1.63.05,4.52,4.52,0,0,1,1.57.57,2.34,2.34,0,0,1,.65.53,1.36,1.36,0,0,1,.3.6,1.15,1.15,0,0,1-.06.61,1.36,1.36,0,0,1-.45.56l2.16,1.24a3.07,3.07,0,0,0,1.07-1.18,1.81,1.81,0,0,0,.16-1.22,2.53,2.53,0,0,0-.64-1.17,5.06,5.06,0,0,0-1.33-1.05"/>
      <path class="cls-3" d="M500.76,417.24a3.62,3.62,0,0,0-.85-.36,6.3,6.3,0,0,0-1-.2,6.14,6.14,0,0,0-1.05,0,5.46,5.46,0,0,0-1,.14h0l1.36-.79-1.92-1.11L489,419.12l2,1.16,3.28-1.91a6.28,6.28,0,0,1,1-.47,4.06,4.06,0,0,1,2.19-.18,3.89,3.89,0,0,1,1.12.44l.36.23.29.23,1.86-1.08a1.52,1.52,0,0,0-.37-.3"/>
      <path class="cls-3" d="M499.12,423.45a1.46,1.46,0,0,1-.64-.61.71.71,0,0,1,0-.62,1.72,1.72,0,0,1,.46-.6,4.1,4.1,0,0,1,.76-.54,6.41,6.41,0,0,1,.95-.45,4.74,4.74,0,0,1,1-.27,4.34,4.34,0,0,1,1.08,0,2.82,2.82,0,0,1,1.05.37,1.58,1.58,0,0,1,.66.61.81.81,0,0,1,0,.63,1.53,1.53,0,0,1-.45.6,5.15,5.15,0,0,1-.78.55,6.67,6.67,0,0,1-.93.45,4.17,4.17,0,0,1-1,.26,3.33,3.33,0,0,1-1.09,0,3.08,3.08,0,0,1-1.06-.38m6.18-3.59a6.74,6.74,0,0,0-1.83-.73,7.28,7.28,0,0,0-2-.24,7.43,7.43,0,0,0-2,.26,7.67,7.67,0,0,0-1.85.76,4.52,4.52,0,0,0-1.32,1.08,1.83,1.83,0,0,0-.43,1.14,1.81,1.81,0,0,0,.42,1.13,4.33,4.33,0,0,0,1.29,1.06,7.49,7.49,0,0,0,3.8,1,7.66,7.66,0,0,0,2-.25,7.35,7.35,0,0,0,1.86-.76,4.47,4.47,0,0,0,1.31-1.08,1.79,1.79,0,0,0,.44-1.15,1.76,1.76,0,0,0-.42-1.14,4.08,4.08,0,0,0-1.29-1.07"/>
      <path class="cls-3" d="M513.42,424.55a10.62,10.62,0,0,0-1.27-.61,6.09,6.09,0,0,0-1.39-.38,5.41,5.41,0,0,0-1.45,0,4.11,4.11,0,0,0-1.43.51,1.39,1.39,0,0,0-.61.59.83.83,0,0,0,0,.62,2,2,0,0,0,.4.64q.28.31.63.63a10.75,10.75,0,0,1,1.23,1.23c.25.32.22.57-.08.74a1.29,1.29,0,0,1-.57.19,2.41,2.41,0,0,1-.6,0,5.47,5.47,0,0,1-.58-.15,4.5,4.5,0,0,1-.49-.24,2.23,2.23,0,0,1-.51-.37.91.91,0,0,1-.27-.41.61.61,0,0,1,0-.42.86.86,0,0,1,.42-.4l-1.91-1.11a2,2,0,0,0-.89.9,1.2,1.2,0,0,0,0,.91,2.31,2.31,0,0,0,.66.87,6.94,6.94,0,0,0,1.12.79,8.38,8.38,0,0,0,1.35.64,6,6,0,0,0,1.48.38,5.37,5.37,0,0,0,1.55,0,4,4,0,0,0,1.5-.53,1.49,1.49,0,0,0,.65-.61.89.89,0,0,0,0-.64,1.57,1.57,0,0,0-.37-.64,7.42,7.42,0,0,0-.62-.64l-.65-.59a5.48,5.48,0,0,1-.54-.53.93.93,0,0,1-.24-.46c0-.14.06-.27.24-.37a1,1,0,0,1,.47-.14,2,2,0,0,1,.48,0,3.39,3.39,0,0,1,.45.15l.39.2a1.79,1.79,0,0,1,.73.67c.13.22,0,.46-.34.7l1.92,1.11a1.88,1.88,0,0,0,.77-.86,1.08,1.08,0,0,0,0-.83,2.32,2.32,0,0,0-.62-.8,6.57,6.57,0,0,0-1-.73"/>
      <path class="cls-3" d="M521,429a8.28,8.28,0,0,0-1.27-.61,5.88,5.88,0,0,0-1.38-.38,5.34,5.34,0,0,0-1.44,0,4,4,0,0,0-1.44.51,1.44,1.44,0,0,0-.61.59.81.81,0,0,0,0,.63,1.81,1.81,0,0,0,.39.63c.19.21.4.42.62.63a10,10,0,0,1,1.23,1.23c.25.32.24.57-.07.75a1.46,1.46,0,0,1-.57.18,3,3,0,0,1-.6,0,4.31,4.31,0,0,1-.59-.16,3.75,3.75,0,0,1-.49-.23,2.5,2.5,0,0,1-.5-.37,1,1,0,0,1-.28-.41.61.61,0,0,1,0-.42,1,1,0,0,1,.42-.4L512.56,430a2.09,2.09,0,0,0-.89.9,1.24,1.24,0,0,0,0,.91,2.46,2.46,0,0,0,.67.87,6.62,6.62,0,0,0,1.13.79,8.73,8.73,0,0,0,1.34.64,6.4,6.4,0,0,0,1.49.38,5.31,5.31,0,0,0,1.54,0,4.09,4.09,0,0,0,1.5-.53,1.61,1.61,0,0,0,.65-.61.89.89,0,0,0,0-.64,1.8,1.8,0,0,0-.37-.65c-.19-.21-.39-.42-.62-.63l-.65-.59a5.48,5.48,0,0,1-.54-.53,1,1,0,0,1-.25-.46c0-.15.06-.27.24-.37a1,1,0,0,1,.48-.14,1.56,1.56,0,0,1,.48,0,2,2,0,0,1,.45.15l.39.2a1.84,1.84,0,0,1,.73.66c.13.24,0,.47-.34.71l1.91,1.11a2,2,0,0,0,.78-.85,1.16,1.16,0,0,0,0-.84,2.32,2.32,0,0,0-.62-.8A6.24,6.24,0,0,0,521,429"/>
      <polyline class="cls-3" points="527.13 435.68 522.85 433.21 521.13 434.21 525.41 436.68 527.13 435.68"/>
      <path class="cls-3" d="M539,436.05a8.66,8.66,0,0,0-2.49-1,10.74,10.74,0,0,0-2.7-.25,11.43,11.43,0,0,0-2.67.41,10.31,10.31,0,0,0-2.44,1,6.13,6.13,0,0,0-1.7,1.39,2.75,2.75,0,0,0-.68,1.53,2.39,2.39,0,0,0,.46,1.55,5.18,5.18,0,0,0,1.69,1.44,7.8,7.8,0,0,0,2,.82,8.91,8.91,0,0,0,2.19.32,9.84,9.84,0,0,0,2.22-.22,9.57,9.57,0,0,0,2.15-.73l-2.16-1.25a5.89,5.89,0,0,1-2.34.55,4.16,4.16,0,0,1-2.21-.56,2.24,2.24,0,0,1-1-.91,1.2,1.2,0,0,1-.09-.94,2.22,2.22,0,0,1,.6-.9,5.41,5.41,0,0,1,1.08-.8,8.23,8.23,0,0,1,1.44-.66,6.6,6.6,0,0,1,1.58-.37,5.94,5.94,0,0,1,1.63,0,4.6,4.6,0,0,1,1.56.57,2.4,2.4,0,0,1,.66.53,1.39,1.39,0,0,1,.3.61,1.17,1.17,0,0,1-.07.61,1.24,1.24,0,0,1-.44.55l2.16,1.25a3.41,3.41,0,0,0,1.07-1.18,1.88,1.88,0,0,0,.16-1.22,2.51,2.51,0,0,0-.64-1.18,5.12,5.12,0,0,0-1.34-1.05"/>
      <path class="cls-3" d="M548.62,445.1l-2-1.16-3.83,2.22a4.69,4.69,0,0,1-2,.71,2.76,2.76,0,0,1-1.67-.4c-.49-.28-.67-.56-.57-.84a2.38,2.38,0,0,1,1.07-.95l4.11-2.39-2-1.16-4.48,2.6a7.42,7.42,0,0,0-1.12.79,1.51,1.51,0,0,0-.52.79,1,1,0,0,0,.21.82A3.71,3.71,0,0,0,537,447a5.35,5.35,0,0,0,3.44.6l.05,0-1,.59,1.91,1.1,7.29-4.23"/>
      <polyline class="cls-3" points="555 445.57 552.98 444.4 542.92 450.25 544.94 451.42 555 445.57"/>
      <path class="cls-3" d="M558.55,448.31l-2-1.17-2.18,1.27-1.22-.71-1.34.79,1.22.7-4.3,2.5a1.69,1.69,0,0,0-.7.62.64.64,0,0,0,0,.6,1.5,1.5,0,0,0,.5.56,6.71,6.71,0,0,0,.81.55l.63.35a5.89,5.89,0,0,0,.63.29l1.54-.9-.34-.15a2.79,2.79,0,0,1-.34-.18c-.34-.19-.51-.36-.51-.49s.17-.29.51-.49l3.6-2.1,1.48.86,1.34-.79-1.47-.85,2.18-1.26"/>
      <path class="cls-3" d="M565.69,455l-2-1.17L559.85,456a4.92,4.92,0,0,1-2,.72,2.87,2.87,0,0,1-1.68-.4c-.48-.28-.66-.56-.56-.84s.46-.6,1.06-1l4.12-2.39-2-1.16-4.49,2.61a6.12,6.12,0,0,0-1.11.79,1.54,1.54,0,0,0-.53.78,1,1,0,0,0,.22.82,3.47,3.47,0,0,0,1.12.89,5.08,5.08,0,0,0,1.53.56,5.52,5.52,0,0,0,1.91,0l0,0-1,.59,1.91,1.11,7.29-4.23"/>
      <path class="cls-3" d="M571.7,458.2a3.62,3.62,0,0,0-.85-.36,6.3,6.3,0,0,0-1-.2,6.14,6.14,0,0,0-1,0,4.73,4.73,0,0,0-1,.14l0,0,1.36-.78-1.92-1.11-7.29,4.24,2,1.16,3.28-1.91a6,6,0,0,1,1-.48,4.25,4.25,0,0,1,1.07-.23,3.87,3.87,0,0,1,1.12.06,3.73,3.73,0,0,1,1.11.44c.13.07.25.15.37.23a2.67,2.67,0,0,1,.29.23l1.86-1.09a1.76,1.76,0,0,0-.37-.29"/>
      <path class="cls-3" d="M569.53,464.29a3.58,3.58,0,0,1-.43-.29.84.84,0,0,1-.24-.32.36.36,0,0,1,0-.32,1,1,0,0,1,.35-.32,1.65,1.65,0,0,1,.57-.21,1.76,1.76,0,0,1,.56,0,2.2,2.2,0,0,1,.57.1c.2.06.39.13.57.2l.55.23c.18.09.35.16.53.23l.52.18a3.05,3.05,0,0,0,.5.08l-.75.43a3.75,3.75,0,0,1-.49.24,3,3,0,0,1-.75.22,3.38,3.38,0,0,1-1,0,3.1,3.1,0,0,1-1.12-.42m6.77-3.44a11.68,11.68,0,0,0-1.33-.63,8,8,0,0,0-1.49-.39,5.67,5.67,0,0,0-1.54,0,4.61,4.61,0,0,0-1.53.48l2,1.16a2.43,2.43,0,0,1,1.25-.26,2.83,2.83,0,0,1,1.19.39,5.49,5.49,0,0,1,.47.31,1,1,0,0,1,.27.33.35.35,0,0,1,0,.33.9.9,0,0,1-.4.36,1.09,1.09,0,0,1-.66.17,3.22,3.22,0,0,1-.79-.17,8,8,0,0,1-.9-.38l-1-.45c-.35-.14-.71-.28-1.09-.41a5.89,5.89,0,0,0-1.15-.24,4.11,4.11,0,0,0-1.21,0,3.76,3.76,0,0,0-1.25.47,2.23,2.23,0,0,0-.78.67,1,1,0,0,0-.14.7,1.37,1.37,0,0,0,.4.69,3.93,3.93,0,0,0,.85.64,7.12,7.12,0,0,0,1.53.65,5.75,5.75,0,0,0,1.83.26,1.5,1.5,0,0,0-.31.24,1.48,1.48,0,0,0-.25.25l2,1.18a1.38,1.38,0,0,1,.47-.51,9.14,9.14,0,0,1,.89-.58l3.79-2.2c.45-.26.71-.52.78-.79a1.13,1.13,0,0,0-.14-.81,3,3,0,0,0-.74-.77,9.93,9.93,0,0,0-1-.7"/>
      <polyline class="cls-3" points="585.73 463.31 583.72 462.15 573.65 468 575.67 469.16 585.73 463.31"/>
      <path class="cls-3" d="M596.25,469.11a8.72,8.72,0,0,0-2.5-1,10.62,10.62,0,0,0-2.69-.25,10.86,10.86,0,0,0-2.66.42,10.36,10.36,0,0,0-2.44,1,6.34,6.34,0,0,0-1.71,1.39,2.83,2.83,0,0,0-.68,1.53,2.39,2.39,0,0,0,.46,1.55,5.18,5.18,0,0,0,1.69,1.44,8,8,0,0,0,2,.82,8.3,8.3,0,0,0,2.17.31,9.45,9.45,0,0,0,2.24-.21,9,9,0,0,0,2.14-.73l-2.15-1.25a6,6,0,0,1-2.34.55,4.17,4.17,0,0,1-2.22-.56,2.4,2.4,0,0,1-1-.91,1.19,1.19,0,0,1-.08-.94,2.22,2.22,0,0,1,.6-.9,5.8,5.8,0,0,1,1.09-.8,8.13,8.13,0,0,1,1.43-.66,7.12,7.12,0,0,1,1.58-.37,6,6,0,0,1,1.63,0,4.52,4.52,0,0,1,1.56.57,2.43,2.43,0,0,1,.66.53,1.39,1.39,0,0,1,.3.61,1.15,1.15,0,0,1-.06.61,1.39,1.39,0,0,1-.44.55l2.15,1.25a3.31,3.31,0,0,0,1.07-1.18,1.82,1.82,0,0,0,.16-1.22,2.58,2.58,0,0,0-.63-1.18,5.36,5.36,0,0,0-1.35-1.05"/>
      <path class="cls-3" d="M596.58,479.72a1.49,1.49,0,0,1-.65-.61.75.75,0,0,1,0-.62,1.67,1.67,0,0,1,.46-.6,5.13,5.13,0,0,1,.76-.55,6.41,6.41,0,0,1,1-.45,4.21,4.21,0,0,1,1-.26,4,4,0,0,1,1.09,0,3.1,3.1,0,0,1,1,.38,1.58,1.58,0,0,1,.66.61.77.77,0,0,1,0,.63,1.54,1.54,0,0,1-.44.6,5.15,5.15,0,0,1-.78.55,6.2,6.2,0,0,1-.94.44,4.54,4.54,0,0,1-1,.27,3.56,3.56,0,0,1-1.08,0,3.08,3.08,0,0,1-1.06-.38m6.18-3.59a7.31,7.31,0,0,0-1.84-.74,8.11,8.11,0,0,0-2-.24,7.68,7.68,0,0,0-3.83,1,4.62,4.62,0,0,0-1.31,1.07,2,2,0,0,0-.44,1.15,1.82,1.82,0,0,0,.43,1.13,4.35,4.35,0,0,0,1.29,1.06,7.57,7.57,0,0,0,1.84.75,8.09,8.09,0,0,0,2,.24,8.33,8.33,0,0,0,2-.25,7.4,7.4,0,0,0,1.84-.77,4.51,4.51,0,0,0,1.32-1.07,2,2,0,0,0,.45-1.15,1.83,1.83,0,0,0-.43-1.14,4.08,4.08,0,0,0-1.29-1.07"/>
      <path class="cls-3" d="M612.07,481.5a5.63,5.63,0,0,0-1.55-.55,5.78,5.78,0,0,0-1.91,0l0,0,1-.59-1.91-1.11-7.29,4.24,2,1.16,3.82-2.22a4.69,4.69,0,0,1,2-.71,2.78,2.78,0,0,1,1.67.4c.49.28.67.56.57.84a2.4,2.4,0,0,1-1.06,1l-4.12,2.39,2,1.16,4.48-2.6a6.77,6.77,0,0,0,1.12-.79,1.53,1.53,0,0,0,.52-.79,1,1,0,0,0-.21-.82,3.45,3.45,0,0,0-1.1-.9"/>
      <polyline class="cls-3" points="622.62 487.82 620.62 486.67 614.1 488.67 614.07 488.65 617.5 484.87 615.39 483.65 610.61 489.33 612.86 490.63 622.62 487.82"/>
      <path class="cls-3" d="M622.25,490.93a3.74,3.74,0,0,1,.58-.22,3,3,0,0,1,.77-.14,3.65,3.65,0,0,1,.92.06,2.93,2.93,0,0,1,1,.37c.5.28.73.57.71.86a1.57,1.57,0,0,1-.66,1l-3.28-1.9m4.8-.78a6.67,6.67,0,0,0-1.82-.7,9,9,0,0,0-2-.22,8.3,8.3,0,0,0-2,.27,7.24,7.24,0,0,0-1.79.73,4.53,4.53,0,0,0-1.28,1,1.82,1.82,0,0,0-.47,1.13,1.77,1.77,0,0,0,.39,1.14,4.07,4.07,0,0,0,1.29,1.06,7.08,7.08,0,0,0,2.69.9,7.69,7.69,0,0,0,3.18-.34l-1.77-1a3.09,3.09,0,0,1-1.18.06,3.44,3.44,0,0,1-1.36-.42c-.56-.33-.85-.67-.87-1s.3-.72.91-1.11l5.3,3.06a5.93,5.93,0,0,0,1.48-1,2.59,2.59,0,0,0,.74-1.18,1.67,1.67,0,0,0-.18-1.22,3.29,3.29,0,0,0-1.27-1.15"/>
      <path class="cls-3" d="M636.09,495.37a4.34,4.34,0,0,0-.85-.36,6.2,6.2,0,0,0-1-.2,6.11,6.11,0,0,0-1,0,5.24,5.24,0,0,0-1,.14h0l1.36-.79L631.61,493l-7.29,4.24,2,1.16,3.29-1.91a6.18,6.18,0,0,1,1-.47,3.87,3.87,0,0,1,1.07-.24,4.24,4.24,0,0,1,1.12.06,3.89,3.89,0,0,1,1.12.44l.36.23a2.94,2.94,0,0,1,.29.23l1.87-1.08a2,2,0,0,0-.37-.3"/>
      <path class="cls-3" d="M640.33,497.82a9.93,9.93,0,0,0-1.27-.61,6.65,6.65,0,0,0-1.39-.38,5,5,0,0,0-1.44,0,3.79,3.79,0,0,0-1.43.51,1.46,1.46,0,0,0-.62.58.86.86,0,0,0,0,.63,1.81,1.81,0,0,0,.39.63q.29.31.63.63A11.34,11.34,0,0,1,636.4,501c.25.32.24.57-.07.75a1.46,1.46,0,0,1-.57.18,2.41,2.41,0,0,1-.6,0,3.8,3.8,0,0,1-.58-.15,3.89,3.89,0,0,1-.5-.24,2.16,2.16,0,0,1-.5-.37,1.16,1.16,0,0,1-.28-.41.61.61,0,0,1,0-.42,1.08,1.08,0,0,1,.42-.4l-1.91-1.11a2.15,2.15,0,0,0-.89.9,1.24,1.24,0,0,0,0,.91,2.49,2.49,0,0,0,.67.87,6.65,6.65,0,0,0,1.13.8,8.7,8.7,0,0,0,1.34.63,5.93,5.93,0,0,0,1.49.38,5.68,5.68,0,0,0,1.54,0,4.31,4.31,0,0,0,1.5-.54,1.55,1.55,0,0,0,.65-.61.89.89,0,0,0,.05-.64,1.77,1.77,0,0,0-.37-.64,7.42,7.42,0,0,0-.62-.64l-.65-.59a6.88,6.88,0,0,1-.54-.53,1,1,0,0,1-.25-.46c0-.14.07-.26.24-.37a1.06,1.06,0,0,1,.48-.14,1.91,1.91,0,0,1,.48,0,2.69,2.69,0,0,1,.45.16l.4.2a1.73,1.73,0,0,1,.72.66c.13.23,0,.46-.34.7l1.91,1.11a1.89,1.89,0,0,0,.78-.85,1.16,1.16,0,0,0,0-.84,2.2,2.2,0,0,0-.62-.79,6,6,0,0,0-1-.74"/>
      <path class="cls-3" d="M641.54,505.86a3,3,0,0,1-.44-.29.87.87,0,0,1-.24-.32.36.36,0,0,1,0-.32,1,1,0,0,1,.36-.31,1.45,1.45,0,0,1,.56-.22,1.77,1.77,0,0,1,.56,0,2.29,2.29,0,0,1,.58.11,3.35,3.35,0,0,1,.56.19,5.38,5.38,0,0,1,.55.24l.54.22.51.18a3.05,3.05,0,0,0,.5.08l-.75.43-.48.25a3.7,3.7,0,0,1-.75.21,3.45,3.45,0,0,1-1,0,3.06,3.06,0,0,1-1.11-.42m6.76-3.44a10.93,10.93,0,0,0-1.33-.63,7.69,7.69,0,0,0-1.5-.39,5.22,5.22,0,0,0-1.53,0,4.37,4.37,0,0,0-1.53.47l2,1.17a2.43,2.43,0,0,1,1.24-.27,3.13,3.13,0,0,1,1.2.39,4.58,4.58,0,0,1,.46.32.83.83,0,0,1,.27.31.37.37,0,0,1,0,.34,1,1,0,0,1-.41.36,1.07,1.07,0,0,1-.66.17,2.83,2.83,0,0,1-.78-.17,9.18,9.18,0,0,1-.91-.37c-.32-.16-.66-.31-1-.45s-.72-.29-1.09-.41a5.48,5.48,0,0,0-1.16-.25,4.49,4.49,0,0,0-1.21,0,3.63,3.63,0,0,0-1.24.47,2.24,2.24,0,0,0-.78.67,1,1,0,0,0-.15.7,1.33,1.33,0,0,0,.41.69,3.49,3.49,0,0,0,.85.64,7.66,7.66,0,0,0,1.53.66,6.28,6.28,0,0,0,1.83.25,2.67,2.67,0,0,0-.32.24,3,3,0,0,0-.25.25l2,1.18a1.34,1.34,0,0,1,.48-.5c.27-.2.56-.39.89-.59l3.79-2.2a1.5,1.5,0,0,0,.77-.79,1.08,1.08,0,0,0-.14-.81,3,3,0,0,0-.74-.77,9.93,9.93,0,0,0-1-.7"/>
      <path class="cls-3" d="M657.62,505.5l-2-1.16-2.18,1.27-1.22-.7-1.35.78,1.22.7-4.29,2.5a1.73,1.73,0,0,0-.71.62.65.65,0,0,0,0,.59,1.45,1.45,0,0,0,.5.57,6.14,6.14,0,0,0,.82.55l.63.35a6.81,6.81,0,0,0,.62.29l1.54-.9-.33-.15a2.21,2.21,0,0,1-.34-.18c-.35-.19-.51-.36-.51-.49s.16-.29.5-.49l3.6-2.1,1.48.85,1.34-.78-1.47-.85,2.18-1.27"/>
      <path class="cls-3" d="M660,509.38l-2-1.17-7.29,4.24,2,1.16,7.28-4.23m2.78-1.61-2-1.17-1.65,1,2,1.17,1.65-1"/>
      <path class="cls-3" d="M659.12,515.83a1.55,1.55,0,0,1-.65-.61.71.71,0,0,1,0-.62,1.63,1.63,0,0,1,.45-.61,5.22,5.22,0,0,1,.77-.54,6.29,6.29,0,0,1,.94-.45,4.17,4.17,0,0,1,1-.26,3.83,3.83,0,0,1,1.07,0,2.82,2.82,0,0,1,1.06.38,1.52,1.52,0,0,1,.66.61.86.86,0,0,1,0,.63,1.72,1.72,0,0,1-.46.6,5.84,5.84,0,0,1-.77.55,5.78,5.78,0,0,1-.94.44,4.68,4.68,0,0,1-1,.27,3.56,3.56,0,0,1-1.08,0,3.05,3.05,0,0,1-1.06-.37m6.18-3.59a6.83,6.83,0,0,0-1.84-.74,7.65,7.65,0,0,0-2-.24,8,8,0,0,0-2,.26,7.31,7.31,0,0,0-1.85.77,4.45,4.45,0,0,0-1.31,1.07,2,2,0,0,0-.44,1.14,1.83,1.83,0,0,0,.43,1.14,4.19,4.19,0,0,0,1.29,1.05,6.92,6.92,0,0,0,1.83.75,7.77,7.77,0,0,0,2,.25,7.66,7.66,0,0,0,2-.26,7.29,7.29,0,0,0,1.85-.76,4.66,4.66,0,0,0,1.32-1.08,1.77,1.77,0,0,0,.44-1.14,1.8,1.8,0,0,0-.42-1.15,4.2,4.2,0,0,0-1.29-1.06"/>
      <path class="cls-3" d="M674.6,517.61a5.49,5.49,0,0,0-3.45-.59l0,0,1-.59-1.92-1.11-7.28,4.24,2,1.16,3.81-2.22a5,5,0,0,1,2-.72,2.91,2.91,0,0,1,1.69.41c.47.28.66.56.55.84a2.3,2.3,0,0,1-1.05.94l-4.12,2.4,2,1.16,4.48-2.61a7.23,7.23,0,0,0,1.12-.78,1.67,1.67,0,0,0,.53-.79,1.09,1.09,0,0,0-.22-.83,3.41,3.41,0,0,0-1.11-.89"/>
      <path class="cls-3" d="M681.83,521.78a10.62,10.62,0,0,0-1.27-.61,6.65,6.65,0,0,0-1.39-.38,5,5,0,0,0-1.44,0,3.67,3.67,0,0,0-1.44.51,1.37,1.37,0,0,0-.61.58.86.86,0,0,0,0,.63,1.81,1.81,0,0,0,.39.63q.29.32.63.63A10.5,10.5,0,0,1,677.9,525c.25.32.24.57-.07.75a1.46,1.46,0,0,1-.57.18,2.41,2.41,0,0,1-.6,0,3.8,3.8,0,0,1-.58-.15,3.89,3.89,0,0,1-.5-.24,2.16,2.16,0,0,1-.5-.37,1,1,0,0,1-.28-.41.61.61,0,0,1,0-.42,1.08,1.08,0,0,1,.42-.4l-1.91-1.11a2.15,2.15,0,0,0-.89.9,1.24,1.24,0,0,0,0,.91,2.49,2.49,0,0,0,.67.87,6.65,6.65,0,0,0,1.13.8,8.7,8.7,0,0,0,1.34.63,5.93,5.93,0,0,0,1.49.38,5.68,5.68,0,0,0,1.54,0,4.31,4.31,0,0,0,1.5-.54,1.55,1.55,0,0,0,.65-.61.89.89,0,0,0,.05-.64,1.63,1.63,0,0,0-.37-.64,7.42,7.42,0,0,0-.62-.64l-.65-.59a6.88,6.88,0,0,1-.54-.53,1,1,0,0,1-.25-.46c0-.14.07-.26.24-.37a1.06,1.06,0,0,1,.48-.14,1.91,1.91,0,0,1,.48,0,2.69,2.69,0,0,1,.45.16l.39.19a1.79,1.79,0,0,1,.73.67c.13.23,0,.46-.34.7l1.91,1.11a1.89,1.89,0,0,0,.78-.85,1.11,1.11,0,0,0,0-.84,2.2,2.2,0,0,0-.62-.79,6,6,0,0,0-1-.74"/>
    </g>
  </g>
  <g>
    <g class="cls-2">
      <g>
        <polyline class="cls-4" points="306.76 341.02 769.39 73.93 893.24 145.9 430.61 413 306.76 341.02"/>
        <path class="cls-3" d="M893.24,145.9,430.61,413,306.76,341,769.39,73.93l123.85,72"/>
      </g>
    </g>
    <g class="cls-2">
      <g>
        <path class="cls-4" d="M635.71,189.9l-7.37,4.26,28.37,7.7,9.22-5.33a17,17,0,0,0,3.63-2.69,4.08,4.08,0,0,0,1.42-2.78,3.23,3.23,0,0,0-1.54-2.66,15.52,15.52,0,0,0-5.32-2.29,42.8,42.8,0,0,0-6.84-1.26,33.65,33.65,0,0,0-6.95,0,34.08,34.08,0,0,0-7.19,1.61,40.82,40.82,0,0,0-7.43,3.41m-87.84,49.8a14.12,14.12,0,0,0-4.66,3.78,3.2,3.2,0,0,0-.44,3.22,5.81,5.81,0,0,0,2.74,2.61,22.75,22.75,0,0,0,5,2,37.19,37.19,0,0,0,6.22,1.09,39,39,0,0,0,7,0,37.77,37.77,0,0,0,7.36-1.33,32.4,32.4,0,0,0,7.23-3.09,13.52,13.52,0,0,0,4.6-3.75,3.24,3.24,0,0,0,.53-3.21,5.77,5.77,0,0,0-2.62-2.58,21.32,21.32,0,0,0-4.82-1.91,40.78,40.78,0,0,0-6.42-1.14,38.77,38.77,0,0,0-7.16-.08,37.15,37.15,0,0,0-7.43,1.34,31.69,31.69,0,0,0-7.18,3M440.7,327.47c3.69-2.13,5.44-3.8,5.24-5s-1.9-2.32-5.28-3.24l-28-7.59,10.3-6,28,7.6c6.11,1.66,8.85,3.91,8.27,6.76s-4,6.08-10.28,9.7A61.17,61.17,0,0,1,429.78,337a41.65,41.65,0,0,1-18.83-.69l-28-7.59,10.3-5.95,28,7.59a31.55,31.55,0,0,0,4,.78,19.07,19.07,0,0,0,4.49.06,25.25,25.25,0,0,0,5.12-1.1,29.43,29.43,0,0,0,5.88-2.67m51.21-36,.13-.08-30.19-8.2,9.65-5.57,45,12.22-10.3,5.94-49.64,3.1-.14.08,30.12,8.17-9.68,5.59-45-12.21,10.27-5.93,49.78-3.11m33.68-6.88-45-12.22,33-19,8.33,2.26-22.67,13.09,10.39,2.82,19.63-11.33,7.69,2.08L517.33,273.6l18.59,5-10.33,6m90.12-52-45-12.22,10.32-6,36.7,10,22.86-13.2,8.3,2.25-33.19,19.17m39-22.52-45-12.21,20.23-11.68a58.44,58.44,0,0,1,9.86-4.51,60.06,60.06,0,0,1,10.9-2.77,58.89,58.89,0,0,1,11.43-.71,51.12,51.12,0,0,1,11.36,1.73,27.82,27.82,0,0,1,7.79,3.21,6.62,6.62,0,0,1,3.21,4.25c.24,1.57-.42,3.29-1.9,5.13a27.85,27.85,0,0,1-7.66,5.88l-20.22,11.68m48.7-28.12-45-12.21,10.32-6,45,12.22-10.33,6m34.45-32.45.13-.08-30.2-8.19,9.66-5.58,45,12.22-10.33,6-49.64,3.1-.14.07,30.12,8.18-9.65,5.57-45-12.21,10.24-5.92,49.81-3.12M586.62,250.22a61.21,61.21,0,0,1-11.48,5.13,70.93,70.93,0,0,1-12.22,2.84,67.31,67.31,0,0,1-11.94.62,49.41,49.41,0,0,1-10.77-1.58,22.86,22.86,0,0,1-7.77-3.45,6.78,6.78,0,0,1-3-4.67c-.17-1.72.57-3.57,2.21-5.57a29.44,29.44,0,0,1,7.88-6.1,60.35,60.35,0,0,1,11.54-5.11,71.18,71.18,0,0,1,12.29-2.8,65.9,65.9,0,0,1,12.07-.58,50.31,50.31,0,0,1,10.92,1.64A22.16,22.16,0,0,1,594,234a6.47,6.47,0,0,1,2.86,4.63c.12,1.7-.65,3.55-2.29,5.52a29.92,29.92,0,0,1-7.93,6.09m207-119.48a61.17,61.17,0,0,1-11.48,5.12,70.76,70.76,0,0,1-12.22,2.85,67.31,67.31,0,0,1-11.94.62,49,49,0,0,1-10.74-1.6,23.05,23.05,0,0,1-7.8-3.44,6.76,6.76,0,0,1-3-4.67q-.25-2.57,2.21-5.56a29.44,29.44,0,0,1,7.88-6.1,54.18,54.18,0,0,1,8-3.75,63.47,63.47,0,0,1,9.15-2.7,57.59,57.59,0,0,1,9.49-1.26,37.23,37.23,0,0,1,9,.61l-9.84,5.68a28.84,28.84,0,0,0-9.23.51,29.59,29.59,0,0,0-8.25,3.17,13.63,13.63,0,0,0-4.63,3.77,3.15,3.15,0,0,0-.47,3.22,5.82,5.82,0,0,0,2.74,2.62,22.75,22.75,0,0,0,5,2,38.23,38.23,0,0,0,6.22,1.09,39,39,0,0,0,7,0,37.79,37.79,0,0,0,7.39-1.35,31.78,31.78,0,0,0,7.2-3.07q5.13-3,5.43-5.24c.18-1.52-1.11-2.81-4-3.84l-10.38,6-7.38-2L788.75,112l24.31,6.61-6.56,3.78-6.16-.78a5.19,5.19,0,0,1-1.36,4.84,21,21,0,0,1-5.41,4.26m-23.9-56.89L306.76,341.1l119.6,32.47,462.9-267.26L769.67,73.85"/>
        <path class="cls-5" d="M426.36,373.57,306.76,341.1,769.67,73.85l119.59,32.46L426.36,373.57"/>
        <path class="cls-3" d="M423,305.65l-10.3,6,28,7.59c3.38.92,5.13,2,5.28,3.24s-1.55,2.91-5.24,5a29.43,29.43,0,0,1-5.88,2.67,25.25,25.25,0,0,1-5.12,1.1,19.07,19.07,0,0,1-4.49-.06,31.55,31.55,0,0,1-4-.78l-28-7.59L383,328.76l28,7.59a41.65,41.65,0,0,0,18.83.69A61.17,61.17,0,0,0,449,329.71q9.41-5.43,10.28-9.7c.58-2.85-2.16-5.1-8.27-6.76l-28-7.6"/>
        <polyline class="cls-3" points="471.5 277.64 461.85 283.21 492.04 291.41 491.91 291.49 442.13 294.6 431.86 300.53 476.86 312.74 486.54 307.15 456.42 298.98 456.56 298.9 506.2 295.8 516.5 289.86 471.5 277.64"/>
        <polyline class="cls-3" points="513.59 253.34 480.59 272.39 525.59 284.61 535.92 278.64 517.33 273.6 536.96 262.26 529.27 260.18 509.64 271.51 499.25 268.69 521.92 255.6 513.59 253.34"/>
        <path class="cls-3" d="M578.37,248a32.4,32.4,0,0,1-7.23,3.09,37.77,37.77,0,0,1-7.36,1.33,39,39,0,0,1-7,0,37.19,37.19,0,0,1-6.22-1.09,22.75,22.75,0,0,1-5-2,5.81,5.81,0,0,1-2.74-2.61,3.2,3.2,0,0,1,.44-3.22,14.12,14.12,0,0,1,4.66-3.78,31.69,31.69,0,0,1,7.18-3,37.15,37.15,0,0,1,7.43-1.34,38.77,38.77,0,0,1,7.16.08,40.78,40.78,0,0,1,6.42,1.14,21.32,21.32,0,0,1,4.82,1.91A5.77,5.77,0,0,1,583.5,241a3.24,3.24,0,0,1-.53,3.21,13.52,13.52,0,0,1-4.6,3.75m-38.83-10.54a29.44,29.44,0,0,0-7.88,6.1c-1.64,2-2.38,3.85-2.21,5.57a6.78,6.78,0,0,0,3,4.67,22.86,22.86,0,0,0,7.77,3.45A49.41,49.41,0,0,0,551,258.81a67.31,67.31,0,0,0,11.94-.62,70.93,70.93,0,0,0,12.22-2.84,61.21,61.21,0,0,0,11.48-5.13,29.92,29.92,0,0,0,7.93-6.09c1.64-2,2.41-3.82,2.29-5.52A6.47,6.47,0,0,0,594,234a22.16,22.16,0,0,0-7.62-3.39A50.31,50.31,0,0,0,575.44,229a65.9,65.9,0,0,0-12.07.58,71.18,71.18,0,0,0-12.29,2.8,60.35,60.35,0,0,0-11.54,5.11"/>
        <polyline class="cls-3" points="581.04 214.4 570.72 220.36 615.71 232.57 648.9 213.41 640.6 211.16 617.74 224.36 581.04 214.4"/>
        <path class="cls-3" d="M656.71,201.86l-28.37-7.7,7.37-4.26a40.82,40.82,0,0,1,7.43-3.41,34.08,34.08,0,0,1,7.19-1.61,33.65,33.65,0,0,1,6.95,0,42.8,42.8,0,0,1,6.84,1.26,15.52,15.52,0,0,1,5.32,2.29,3.23,3.23,0,0,1,1.54,2.66,4.08,4.08,0,0,1-1.42,2.78,17,17,0,0,1-3.63,2.69l-9.22,5.33m-26.77-15.69-20.23,11.68,45,12.21,20.22-11.68a27.85,27.85,0,0,0,7.66-5.88c1.48-1.84,2.14-3.56,1.9-5.13a6.62,6.62,0,0,0-3.21-4.25,27.82,27.82,0,0,0-7.79-3.21,51.12,51.12,0,0,0-11.36-1.73,58.89,58.89,0,0,0-11.43.71,60.06,60.06,0,0,0-10.9,2.77,58.44,58.44,0,0,0-9.86,4.51"/>
        <polyline class="cls-3" points="668.75 163.76 658.42 169.72 703.41 181.94 713.74 175.98 668.75 163.76"/>
        <polyline class="cls-3" points="717.45 135.64 707.79 141.22 737.99 149.41 737.86 149.49 688.05 152.61 677.81 158.53 722.8 170.75 732.46 165.17 702.34 156.99 702.48 156.92 752.12 153.82 762.45 147.86 717.45 135.64"/>
        <path class="cls-3" d="M746.49,118a29.44,29.44,0,0,0-7.88,6.1q-2.46,3-2.21,5.56a6.76,6.76,0,0,0,3,4.67,23.05,23.05,0,0,0,7.8,3.44,49,49,0,0,0,10.74,1.6,67.31,67.31,0,0,0,11.94-.62,70.76,70.76,0,0,0,12.22-2.85,61.17,61.17,0,0,0,11.48-5.12,21,21,0,0,0,5.41-4.26,5.19,5.19,0,0,0,1.36-4.84l6.16.78,6.56-3.78L788.75,112,769,123.42l7.38,2,10.38-6c2.85,1,4.14,2.32,4,3.84s-2,3.27-5.43,5.24a31.78,31.78,0,0,1-7.2,3.07,37.79,37.79,0,0,1-7.39,1.35,39,39,0,0,1-7,0,38.23,38.23,0,0,1-6.22-1.09,22.75,22.75,0,0,1-5-2,5.82,5.82,0,0,1-2.74-2.62,3.15,3.15,0,0,1,.47-3.22,13.63,13.63,0,0,1,4.63-3.77,29.59,29.59,0,0,1,8.25-3.17,28.84,28.84,0,0,1,9.23-.51l9.84-5.68a37.23,37.23,0,0,0-9-.61,57.59,57.59,0,0,0-9.49,1.26,63.47,63.47,0,0,0-9.15,2.7,54.18,54.18,0,0,0-8,3.75"/>
      </g>
    </g>
    <g class="cls-2">
      <g>
        <path class="cls-4" d="M437.66,374.75a14.3,14.3,0,0,0-5.38,5.07,13,13,0,0,0-1.66,6.59v1l4.43-2.55c0-.67,0-1.35.08-2a7.69,7.69,0,0,1,.35-1.83,5.25,5.25,0,0,1,.75-1.54,4.53,4.53,0,0,1,1.38-1.2c1.51-.87,2.24-.19,2.24,2,0,.66,0,1.23-.05,1.79a8,8,0,0,1-.34,1.63,11.8,11.8,0,0,1-.72,1.75,24.94,24.94,0,0,1-1.25,2.18l-1.84,3.07c-.84,1.35-1.56,2.66-2.19,3.89a30.28,30.28,0,0,0-1.59,3.62,21.93,21.93,0,0,0-.92,3.39,19.68,19.68,0,0,0-.28,3.43l14-8.09v-4.12l-8.6,5a11.2,11.2,0,0,1,.75-2.2,25.81,25.81,0,0,1,1.59-3l2.57-4.22c.63-1,1.18-2,1.64-2.88a22.15,22.15,0,0,0,1.09-2.59,21.44,21.44,0,0,0,.61-2.42,18.29,18.29,0,0,0,.19-2.47c0-2.3-.59-3.73-1.69-4.32s-2.84-.23-5.16,1.11"/>
        <path class="cls-4" d="M453.21,389a2,2,0,0,1-1.22.37c-.31,0-.58-.3-.75-.8a7,7,0,0,1-.41-2.22c-.09-1-.13-2.33-.13-4v-2.86c0-1.67,0-3.08.1-4.26a18.26,18.26,0,0,1,.37-2.94,5.24,5.24,0,0,1,.75-1.87,3.62,3.62,0,0,1,1.25-1.15,2.22,2.22,0,0,1,1.24-.39c.32,0,.58.3.76.8a7.29,7.29,0,0,1,.41,2.26c.09,1,.12,2.33.13,4v2.86c0,1.66,0,3.07-.1,4.26a16.92,16.92,0,0,1-.37,2.94,5,5,0,0,1-.75,1.86,3.58,3.58,0,0,1-1.27,1.17m-.06-23.21a12.25,12.25,0,0,0-4,3.49,14.64,14.64,0,0,0-2.13,4.32,22.45,22.45,0,0,0-.85,5c-.09,1.72-.14,3.51-.14,5.31a43.92,43.92,0,0,0,.34,5.73,7.65,7.65,0,0,0,1.17,3.26,2.36,2.36,0,0,0,2.23.87,10.14,10.14,0,0,0,3.42-1.37,12.93,12.93,0,0,0,4-3.4,14.06,14.06,0,0,0,2.13-4.3,22.25,22.25,0,0,0,.86-5c.08-1.71.13-3.47.13-5.3a38.3,38.3,0,0,0-.37-5.72,6.83,6.83,0,0,0-1.16-3.26,2.43,2.43,0,0,0-2.18-.94,8.54,8.54,0,0,0-3.47,1.31"/>
        <path class="cls-4" d="M468.54,356.92a14.23,14.23,0,0,0-5.38,5.07,13.18,13.18,0,0,0-1.69,6.6v1l4.45-2.57c0-.66,0-1.33.05-2a8.36,8.36,0,0,1,.38-1.84,5.19,5.19,0,0,1,.75-1.53,4.37,4.37,0,0,1,1.35-1.19c1.51-.87,2.26-.2,2.27,2,0,.66,0,1.24-.08,1.81a7.9,7.9,0,0,1-.31,1.61,13.33,13.33,0,0,1-.73,1.75,22.3,22.3,0,0,1-1.24,2.18l-1.84,3.07c-.84,1.35-1.59,2.68-2.22,3.91a29.71,29.71,0,0,0-1.56,3.6,21.93,21.93,0,0,0-.92,3.39,19,19,0,0,0-.3,3.44l14-8.1V375l-8.6,5a12.38,12.38,0,0,1,.72-2.18,26.6,26.6,0,0,1,1.62-3l2.56-4.21c.64-1,1.19-2,1.65-2.89a18.05,18.05,0,0,0,1.06-2.58,13.74,13.74,0,0,0,.61-2.41,14.64,14.64,0,0,0,.19-2.48c0-2.29-.56-3.74-1.69-4.32s-2.81-.24-5.13,1.1"/>
        <path class="cls-4" d="M484.09,371.19a2,2,0,0,1-1.22.37c-.31,0-.58-.3-.78-.78a9.48,9.48,0,0,1-.41-2.22c-.06-1-.13-2.33-.13-4v-2.85c0-1.67,0-3.1.11-4.26a17.23,17.23,0,0,1,.39-3,5.24,5.24,0,0,1,.75-1.87,3.55,3.55,0,0,1,1.25-1.15,2,2,0,0,1,1.21-.37c.32,0,.58.3.79.78a8.48,8.48,0,0,1,.41,2.26c.09,1,.12,2.33.12,4V361c0,1.66,0,3.08-.1,4.26a19.9,19.9,0,0,1-.37,2.94,5,5,0,0,1-.78,1.88,3.43,3.43,0,0,1-1.24,1.15M484,348a12.36,12.36,0,0,0-4,3.49,14.1,14.1,0,0,0-2.13,4.33,22.85,22.85,0,0,0-.86,4.95c-.11,1.73-.13,3.51-.13,5.31a38.91,38.91,0,0,0,.34,5.73,7.13,7.13,0,0,0,1.17,3.26,2.34,2.34,0,0,0,2.2.89,10.34,10.34,0,0,0,3.45-1.39,12.64,12.64,0,0,0,4-3.39,13.47,13.47,0,0,0,2.13-4.29,20.92,20.92,0,0,0,.86-5c.11-1.73.16-3.49.16-5.32a38.3,38.3,0,0,0-.37-5.72,7.25,7.25,0,0,0-1.16-3.26,2.48,2.48,0,0,0-2.18-.94A8.69,8.69,0,0,0,484,348"/>
        <polyline class="cls-4" points="521.56 326.11 514.7 330.07 511.45 350.6 511.37 350.65 508.05 333.91 501.16 337.89 501.23 364.26 505.49 361.8 505.43 340.75 505.49 340.72 509.63 359.41 513.24 357.33 517.26 333.92 517.32 333.89 517.38 354.94 521.63 352.48 521.56 326.11"/>
        <polyline class="cls-4" points="537.71 316.79 524.86 324.2 524.93 350.58 529.56 347.9 529.53 336.46 537.26 332 537.25 327.64 529.52 332.11 529.5 325.89 537.72 321.14 537.71 316.79"/>
        <path class="cls-4" d="M544.87,329.1l2.2-13.12.06,0,2.26,10.56-4.52,2.6M550,309.72,544.22,313l-6,29.88,4.83-2.79,1-6.19,6.13-3.55,1.06,5,4.83-2.79L550,309.72"/>
        <polyline class="cls-4" points="578.8 293.06 564.13 301.53 564.14 305.89 569.15 303 569.21 325.01 573.84 322.34 573.78 300.32 578.82 297.42 578.8 293.06"/>
        <path class="cls-4" d="M585.08,289.43,580.66,292l.07,26.37,4.43-2.56,0-13.2a4.88,4.88,0,0,1,2.34-4.61c.66-.39,1.15-.47,1.45-.24s.46.87.47,1.9l0,13.7,4.43-2.56,0-14.73c0-2-.39-3.24-1.14-3.67s-1.86-.26-3.27.56a9.44,9.44,0,0,0-4.19,4.95l-.09.05,0-8.52"/>
        <path class="cls-4" d="M600.58,294.68v-.77a8.32,8.32,0,0,1,.11-1.46A6.68,6.68,0,0,1,601,291a5.41,5.41,0,0,1,.69-1.33,3.71,3.71,0,0,1,1.13-1,1.68,1.68,0,0,1,1.1-.3.81.81,0,0,1,.67.52,3.38,3.38,0,0,1,.35,1.29,16.69,16.69,0,0,1,.12,1.93l-4.51,2.61m2.41-9.59a12.39,12.39,0,0,0-5.67,6.4,14.75,14.75,0,0,0-.94,3.85,30,30,0,0,0-.25,4c0,1.23.06,2.46.15,3.67a7.28,7.28,0,0,0,.82,2.92,2.42,2.42,0,0,0,2,1.33,7.27,7.27,0,0,0,3.76-1.28,11.93,11.93,0,0,0,4.69-4.5,13.52,13.52,0,0,0,1.57-6.21l-4,2.31a10.26,10.26,0,0,1-.69,3.2,3.78,3.78,0,0,1-1.64,1.88,1.36,1.36,0,0,1-1,.22,1.31,1.31,0,0,1-.69-.63,3.84,3.84,0,0,1-.36-1.3,9.6,9.6,0,0,1-.12-1.66v-1.56l8.77-5.07v-1.16a26.35,26.35,0,0,0-.27-4,5.8,5.8,0,0,0-1-2.61,2.43,2.43,0,0,0-2-.92,6.8,6.8,0,0,0-3.15,1.12"/>
        <path class="cls-4" d="M617.4,276.77a15.78,15.78,0,0,0-2.92,2.15,14.06,14.06,0,0,0-2,2.44,9.55,9.55,0,0,0-1.46,5.07,3.83,3.83,0,0,0,.94,2.93,3.16,3.16,0,0,0,2.78.46l3.1-.5a2.07,2.07,0,0,1,1.13.15c.32.15.5.55.5,1.18a3.66,3.66,0,0,1-.61,2.11,4.61,4.61,0,0,1-1.64,1.55c-.76.44-1.34.51-1.71.19a2,2,0,0,1-.62-1.71v-.66l-4,2.3v.7a9.31,9.31,0,0,0,.3,2.43,2.26,2.26,0,0,0,1,1.37,2.66,2.66,0,0,0,2,.1,13,13,0,0,0,3.09-1.39,15.62,15.62,0,0,0,2.61-1.84,10.65,10.65,0,0,0,2-2.26,11.29,11.29,0,0,0,1.33-2.7,10,10,0,0,0,.48-3,4.11,4.11,0,0,0-.88-3.05c-.58-.57-1.57-.7-3-.41l-2.67.51a1.84,1.84,0,0,1-1.54-.12,1.48,1.48,0,0,1-.38-1.11,3.41,3.41,0,0,1,.61-2,4.9,4.9,0,0,1,1.47-1.38c.72-.42,1.25-.46,1.54-.16a3.19,3.19,0,0,1,.44,2l4-2.29V279c0-1.8-.47-2.93-1.46-3.36s-2.46,0-4.46,1.11"/>
        <path class="cls-4" d="M630.51,269.7l-4.43,2.56.06,19.88,4.43-2.55-.06-19.89m0-6.78-4.43,2.55,0,4.36,4.42-2.56v-4.35"/>
        <path class="cls-4" d="M639.4,264.07a15.45,15.45,0,0,0-2.93,2.16,13.93,13.93,0,0,0-2,2.43,9.32,9.32,0,0,0-1.12,2.55,9.7,9.7,0,0,0-.35,2.53,3.86,3.86,0,0,0,.94,2.92,3.19,3.19,0,0,0,2.79.46l3.1-.49a2,2,0,0,1,1.13.14c.32.15.49.55.49,1.18a3.79,3.79,0,0,1-.6,2.12,4.62,4.62,0,0,1-1.65,1.54c-.75.44-1.33.51-1.71.19a2,2,0,0,1-.61-1.71v-.66l-4,2.3v.7a10.18,10.18,0,0,0,.3,2.43,2.37,2.37,0,0,0,1,1.38,2.68,2.68,0,0,0,2,.09,13.17,13.17,0,0,0,3.1-1.39,16,16,0,0,0,2.6-1.84,10.38,10.38,0,0,0,2-2.26,10.93,10.93,0,0,0,1.33-2.7,9.68,9.68,0,0,0,.49-3,4.17,4.17,0,0,0-.88-3.06c-.58-.56-1.57-.69-3-.41l-2.66.51a1.84,1.84,0,0,1-1.54-.11,1.48,1.48,0,0,1-.38-1.12,3.47,3.47,0,0,1,.6-2,5.19,5.19,0,0,1,1.48-1.38c.72-.42,1.24-.45,1.53-.16a3.14,3.14,0,0,1,.44,2l4-2.29v-.8c0-1.8-.48-2.93-1.46-3.36s-2.47,0-4.46,1.11"/>
        <path class="cls-4" d="M662.27,244.34a15,15,0,0,0-5.21,4.93,12.73,12.73,0,0,0-1.89,7,7.35,7.35,0,0,0,.39,2.64,2.7,2.7,0,0,0,1.1,1.53,3.44,3.44,0,0,0,1.89.58,12.76,12.76,0,0,0,2.66-.24,8.25,8.25,0,0,1,1.95-.26,2.65,2.65,0,0,1,1.27.2,1.41,1.41,0,0,1,.7.76,4.07,4.07,0,0,1,.21,1.41,5.17,5.17,0,0,1-.84,2.95,5.92,5.92,0,0,1-1.9,1.9,3.93,3.93,0,0,1-1.51.57,1.28,1.28,0,0,1-1-.25,1.9,1.9,0,0,1-.46-1,8.07,8.07,0,0,1-.15-1.58v-.79l-4.63,2.67v1.1c0,2.42.59,3.95,1.72,4.6s3,.24,5.59-1.27a17.29,17.29,0,0,0,5.87-5.28,12.64,12.64,0,0,0,2.1-7.31,9.66,9.66,0,0,0-.21-2.08,2.62,2.62,0,0,0-.7-1.42,2.57,2.57,0,0,0-1.34-.8,7.5,7.5,0,0,0-2.14-.16l-3.57.29c-1,.12-1.65,0-1.94-.41a3,3,0,0,1-.47-1.79,9.73,9.73,0,0,1,.11-1.2,5.8,5.8,0,0,1,.43-1.25,5.06,5.06,0,0,1,.81-1.13,5.56,5.56,0,0,1,1.27-1c.93-.54,1.57-.57,2-.09a4.19,4.19,0,0,1,.58,2.56l4.43-2.56v-.73a6.78,6.78,0,0,0-.53-3,2.48,2.48,0,0,0-1.48-1.34,3.72,3.72,0,0,0-2.26,0,11.8,11.8,0,0,0-2.84,1.24"/>
        <path class="cls-4" d="M676.74,236.52l-4.43,2.55.08,26.37,4.42-2.55,0-13.21a4.87,4.87,0,0,1,2.33-4.61c.67-.38,1.16-.47,1.45-.23s.47.86.47,1.89l0,13.7,4.43-2.56,0-14.73c0-2-.39-3.24-1.17-3.65s-1.83-.28-3.25.54a9.54,9.54,0,0,0-4.22,5l-.06,0,0-8.51"/>
        <path class="cls-4" d="M694.69,249.6a1.44,1.44,0,0,1-1.3.25,1.74,1.74,0,0,1-.73-1,8.39,8.39,0,0,1-.29-2c-.06-.83-.07-1.76-.07-2.79s0-1.93.05-2.83a15,15,0,0,1,.28-2.39,6.32,6.32,0,0,1,.72-1.85,3.5,3.5,0,0,1,1.3-1.29c.9-.51,1.51-.3,1.86.56a16.21,16.21,0,0,1,.54,5.06,23.37,23.37,0,0,1-.51,5.65,4.1,4.1,0,0,1-1.85,2.7m.24-17.59-.29.17a13.53,13.53,0,0,0-3.21,2.52,12.44,12.44,0,0,0-2.1,3.21,15.77,15.77,0,0,0-1.15,4,29.7,29.7,0,0,0-.34,4.69,27.54,27.54,0,0,0,.33,4.37,5.5,5.5,0,0,0,1.11,2.66,2.26,2.26,0,0,0,2.09.73,8.74,8.74,0,0,0,3-1.19l.28-.17a14.14,14.14,0,0,0,3.18-2.44,12.07,12.07,0,0,0,2.11-3.18,14.87,14.87,0,0,0,1.15-3.93,28.9,28.9,0,0,0,.33-4.72,22.54,22.54,0,0,0-.33-4.37,5.06,5.06,0,0,0-1.11-2.66,2.23,2.23,0,0,0-2.09-.79,7.5,7.5,0,0,0-3,1.14"/>
        <polyline class="cls-4" points="724.77 215.28 720.52 217.74 718.47 233.07 718.41 233.11 716.09 220.29 711.26 223.08 709.15 238.45 709.07 238.5 707.03 225.52 702.58 228.09 706.39 245.81 711.54 242.84 713.65 227.5 713.73 227.45 716.06 240.23 721.09 237.32 724.77 215.28"/>
      </g>
    </g>
  </g>
</svg>
