<svg id="Layer_1" data-name="Layer 1" xmlns="http://www.w3.org/2000/svg" width="130.15" height="29.19" viewBox="0 0 130.15 29.19">
  <defs>
    <style>
      .cls-1 {
        fill: #231f20;
      }

      .cls-2 {
        fill: #dc4460;
      }
    </style>
  </defs>
  <title>logo</title>
  <g>
    <path class="cls-1" d="M12.89,14.88A7.23,7.23,0,0,1,8,16.43,7.22,7.22,0,0,1,3,14.89a6,6,0,0,1-1.75-4.75V.37H4.73v9.77a6.56,6.56,0,0,0,.11,1.26,2.39,2.39,0,0,0,1.44,1.85,4,4,0,0,0,1.68.3,3.23,3.23,0,0,0,2.55-.82,3.93,3.93,0,0,0,.71-2.59V.37h3.45v9.77A5.93,5.93,0,0,1,12.89,14.88Z"/>
    <path class="cls-1" d="M21.07.37l6.56,10.54h0V.37h3.24V16.08H27.45L20.92,5.57h-.05V16.08H17.64V.37Z"/>
    <path class="cls-1" d="M45,.37V3.28H37.4V6.91H44V9.59H37.4v6.49H33.94V.37Z"/>
    <path class="cls-1" d="M46.83,5A8,8,0,0,1,48.35,2.4,6.85,6.85,0,0,1,50.78.64a8.57,8.57,0,0,1,6.5,0A6.81,6.81,0,0,1,59.7,2.4,7.79,7.79,0,0,1,61.22,5a9.82,9.82,0,0,1,.53,3.26,9.61,9.61,0,0,1-.53,3.21,7.56,7.56,0,0,1-1.52,2.58,7,7,0,0,1-2.42,1.73,8.83,8.83,0,0,1-6.5,0,7,7,0,0,1-2.43-1.73,7.73,7.73,0,0,1-1.52-2.58,9.6,9.6,0,0,1-.52-3.21A9.82,9.82,0,0,1,46.83,5ZM50,10.22a5.1,5.1,0,0,0,.74,1.68,3.64,3.64,0,0,0,1.32,1.2,4,4,0,0,0,2,.45,4.08,4.08,0,0,0,2-.45,3.81,3.81,0,0,0,1.32-1.2,5.08,5.08,0,0,0,.73-1.68,7.73,7.73,0,0,0,.24-1.93,8.3,8.3,0,0,0-.24-2,5.11,5.11,0,0,0-.73-1.72A3.74,3.74,0,0,0,56,3.36a4,4,0,0,0-2-.46,3.92,3.92,0,0,0-2,.46,3.58,3.58,0,0,0-1.32,1.21A5.13,5.13,0,0,0,50,6.29a8.82,8.82,0,0,0-.23,2A8.22,8.22,0,0,0,50,10.22Z"/>
    <path class="cls-1" d="M67.56.37V13.18h7.65v2.9H64.1V.37Z"/>
    <path class="cls-1" d="M83.93.37a8.11,8.11,0,0,1,2.82.49A6.22,6.22,0,0,1,89,2.31a6.56,6.56,0,0,1,1.49,2.42,9.76,9.76,0,0,1,.54,3.41,10.7,10.7,0,0,1-.44,3.17,6.87,6.87,0,0,1-1.33,2.51,6.29,6.29,0,0,1-2.22,1.66,7.57,7.57,0,0,1-3.13.6H77.15V.37Zm-.25,12.81a4.51,4.51,0,0,0,1.46-.24,3.25,3.25,0,0,0,1.25-.81,4,4,0,0,0,.88-1.46,6.41,6.41,0,0,0,.33-2.2,9.3,9.3,0,0,0-.23-2.14,4.36,4.36,0,0,0-.76-1.64,3.31,3.31,0,0,0-1.4-1.05,5.6,5.6,0,0,0-2.14-.36H80.6v9.9Z"/>
    <path class="cls-1" d="M96.91.37V16.08H93.45V.37Z"/>
    <path class="cls-1" d="M103.37.37l6.56,10.54h0V.37h3.24V16.08h-3.46L103.22,5.57h0V16.08H99.94V.37Z"/>
    <path class="cls-1" d="M125.55,16a5.7,5.7,0,0,1-2.27.47,8.17,8.17,0,0,1-3.24-.62,7,7,0,0,1-2.43-1.73,7.56,7.56,0,0,1-1.52-2.58,9.61,9.61,0,0,1-.53-3.21A9.82,9.82,0,0,1,116.09,5a7.79,7.79,0,0,1,1.52-2.63A6.85,6.85,0,0,1,120,.64,7.84,7.84,0,0,1,123.28,0a7.74,7.74,0,0,1,2.35.36,6.86,6.86,0,0,1,2,1.07,5.9,5.9,0,0,1,1.51,1.74,5.83,5.83,0,0,1,.73,2.37h-3.3a3.36,3.36,0,0,0-1.19-2,3.47,3.47,0,0,0-2.14-.66,4,4,0,0,0-2,.46A3.74,3.74,0,0,0,120,4.57a5.32,5.32,0,0,0-.73,1.72,8.29,8.29,0,0,0-.23,2,7.73,7.73,0,0,0,.23,1.93A5.29,5.29,0,0,0,120,11.9a3.81,3.81,0,0,0,1.32,1.2,4.08,4.08,0,0,0,2,.45,3.73,3.73,0,0,0,2.65-.87A3.74,3.74,0,0,0,127,10.16h-3.47V7.59h6.6v8.49H128l-.35-1.78A5.17,5.17,0,0,1,125.55,16Z"/>
    <path class="cls-1" d="M0,29.08a3.6,3.6,0,0,1,.1-.88,3.63,3.63,0,0,1,.28-.78,4.67,4.67,0,0,1,.5-.72A6.43,6.43,0,0,1,1.56,26l.58-.54a3.57,3.57,0,0,0,.39-.39,1.74,1.74,0,0,0,.22-.36,1.6,1.6,0,0,0,.11-.39c0-.14,0-.3,0-.48,0-.58-.23-.88-.7-.88a.72.72,0,0,0-.42.11.64.64,0,0,0-.24.3,1.19,1.19,0,0,0-.11.44,4.58,4.58,0,0,0,0,.53H0v-.27a2.08,2.08,0,0,1,.53-1.52A2.29,2.29,0,0,1,2.2,22a2.26,2.26,0,0,1,1.6.5,1.89,1.89,0,0,1,.52,1.43,3.24,3.24,0,0,1-.06.64,2.31,2.31,0,0,1-.19.56,2.79,2.79,0,0,1-.34.53,4.93,4.93,0,0,1-.51.52l-.8.74a3.14,3.14,0,0,0-.5.57,1.54,1.54,0,0,0-.23.47H4.36v1.12Z"/>
    <path class="cls-1" d="M4.85,24.36a3.65,3.65,0,0,1,.27-1.2,1.92,1.92,0,0,1,.67-.84A2.07,2.07,0,0,1,7,22a2.64,2.64,0,0,1,1.08.19,1.49,1.49,0,0,1,.68.59,2.93,2.93,0,0,1,.35,1.07,9.06,9.06,0,0,1,.11,1.59c0,.5,0,1-.05,1.42a3.65,3.65,0,0,1-.27,1.21,1.81,1.81,0,0,1-.67.82,2.15,2.15,0,0,1-1.23.3A2.79,2.79,0,0,1,6,29a1.32,1.32,0,0,1-.68-.58,2.7,2.7,0,0,1-.36-1.06,9.18,9.18,0,0,1-.11-1.6C4.8,25.29,4.82,24.82,4.85,24.36Zm1.43,2.83a2.61,2.61,0,0,0,.12.67.62.62,0,0,0,.24.33.74.74,0,0,0,.38.09.67.67,0,0,0,.39-.11.74.74,0,0,0,.23-.39A3.7,3.7,0,0,0,7.77,27q0-.45,0-1.14v-.77c0-.44,0-.81,0-1.09a2.82,2.82,0,0,0-.13-.67A.61.61,0,0,0,7.4,23,.74.74,0,0,0,7,22.94a.61.61,0,0,0-.39.12.73.73,0,0,0-.24.39,3.78,3.78,0,0,0-.11.73c0,.31,0,.69,0,1.14v.77C6.24,26.54,6.25,26.9,6.28,27.19Z"/>
    <path class="cls-1" d="M9.6,29.08a3.6,3.6,0,0,1,.1-.88,3.19,3.19,0,0,1,.29-.78,4,4,0,0,1,.49-.72,6.43,6.43,0,0,1,.68-.72l.58-.54a2.72,2.72,0,0,0,.38-.39,1.45,1.45,0,0,0,.23-.36,1.6,1.6,0,0,0,.11-.39c0-.14,0-.3,0-.48,0-.58-.23-.88-.7-.88a.72.72,0,0,0-.42.11.64.64,0,0,0-.24.3,1.19,1.19,0,0,0-.11.44,4.58,4.58,0,0,0,0,.53H9.6v-.27a2.08,2.08,0,0,1,.53-1.52A2.29,2.29,0,0,1,11.8,22a2.26,2.26,0,0,1,1.6.5,1.89,1.89,0,0,1,.52,1.43,3.24,3.24,0,0,1-.06.64,2.31,2.31,0,0,1-.19.56,2.79,2.79,0,0,1-.34.53,4.93,4.93,0,0,1-.51.52l-.8.74a3.14,3.14,0,0,0-.5.57,1.54,1.54,0,0,0-.23.47H14v1.12Z"/>
    <path class="cls-1" d="M14.45,24.36a3.65,3.65,0,0,1,.27-1.2,2,2,0,0,1,.66-.84A2.13,2.13,0,0,1,16.62,22a2.64,2.64,0,0,1,1.08.19,1.49,1.49,0,0,1,.68.59,3.12,3.12,0,0,1,.36,1.07,11.71,11.71,0,0,1,.1,1.59c0,.5,0,1-.05,1.42a3.65,3.65,0,0,1-.27,1.21,1.86,1.86,0,0,1-.66.82,2.21,2.21,0,0,1-1.24.3A2.79,2.79,0,0,1,15.55,29a1.32,1.32,0,0,1-.68-.58,2.87,2.87,0,0,1-.36-1.06,10.28,10.28,0,0,1-.11-1.6C14.4,25.29,14.42,24.82,14.45,24.36Zm1.43,2.83a2.61,2.61,0,0,0,.12.67.62.62,0,0,0,.24.33.74.74,0,0,0,.38.09.67.67,0,0,0,.39-.11.82.82,0,0,0,.24-.39,4.75,4.75,0,0,0,.12-.74q0-.45,0-1.14v-.77c0-.44,0-.81,0-1.09a2.82,2.82,0,0,0-.13-.67A.61.61,0,0,0,17,23a.74.74,0,0,0-.38-.09.61.61,0,0,0-.39.12.67.67,0,0,0-.23.39,3.07,3.07,0,0,0-.12.73c0,.31,0,.69,0,1.14v.77C15.84,26.54,15.85,26.9,15.88,27.19Z"/>
    <path class="cls-2" d="M24.09,21.94l1,5h0l1-5h2.13v7.14H27v-5.7h0l-1.27,5.7H24.56l-1.27-5.7h0v5.7H22V21.94Z"/>
    <path class="cls-2" d="M33.31,21.94v1.18H30.76V24.8h2.4V26h-2.4v3.1H29.32V21.94Z"/>
    <path class="cls-2" d="M37.12,21.94,39,29.08h-1.5l-.33-1.51h-1.9L35,29.08h-1.5l1.89-7.14Zm-.19,4.45-.69-3.21h0l-.69,3.21Z"/>
    <path class="cls-1" d="M46.09,23.12H44.53v6H43.09v-6H41.53V21.94h4.56Z"/>
    <path class="cls-1" d="M48.05,21.94v2.31h0a1.4,1.4,0,0,1,1.31-.69,1.34,1.34,0,0,1,1,.36,1.61,1.61,0,0,1,.36,1.17v4H49.37V25.37a.93.93,0,0,0-.14-.58.55.55,0,0,0-.45-.17c-.49,0-.73.3-.73.89v3.57H46.67V21.94Z"/>
    <path class="cls-1" d="M52.85,27a3.59,3.59,0,0,0,0,.47,2.09,2.09,0,0,0,.12.4.74.74,0,0,0,.21.28.49.49,0,0,0,.32.1A.56.56,0,0,0,54,28a1.76,1.76,0,0,0,.22-.76H55.5A2.14,2.14,0,0,1,55,28.7a1.9,1.9,0,0,1-1.45.49,2.26,2.26,0,0,1-1.17-.25,1.46,1.46,0,0,1-.62-.66,2.45,2.45,0,0,1-.24-.92,8.89,8.89,0,0,1,0-2.06,2.75,2.75,0,0,1,.3-.89,1.76,1.76,0,0,1,.65-.62,2.36,2.36,0,0,1,1.12-.23,2.13,2.13,0,0,1,1,.2,1.48,1.48,0,0,1,.61.55,2.13,2.13,0,0,1,.3.86,7.55,7.55,0,0,1,.08,1.12v.31H52.85Zm1.37-1.79a1.37,1.37,0,0,0-.1-.4.54.54,0,0,0-.22-.25.59.59,0,0,0-.34-.09.56.56,0,0,0-.35.1.58.58,0,0,0-.21.25,1.7,1.7,0,0,0-.12.34,2.53,2.53,0,0,0,0,.38v.21h1.41C54.25,25.58,54.24,25.39,54.22,25.24Z"/>
    <path class="cls-1" d="M57.31,27.5a.86.86,0,0,0,.18.57.7.7,0,0,0,.54.21.76.76,0,0,0,.51-.16.57.57,0,0,0,.19-.48.5.5,0,0,0-.15-.39,1.38,1.38,0,0,0-.35-.22l-1-.35a1.82,1.82,0,0,1-.86-.56,1.5,1.5,0,0,1-.29-.94,1.8,1.8,0,0,1,.11-.62,1.3,1.3,0,0,1,.35-.52,1.94,1.94,0,0,1,.62-.35,3,3,0,0,1,.9-.13,2.08,2.08,0,0,1,1.39.4,1.45,1.45,0,0,1,.45,1.13v.22H58.69a1.08,1.08,0,0,0-.14-.61.53.53,0,0,0-.47-.2.75.75,0,0,0-.46.15.49.49,0,0,0-.19.43.56.56,0,0,0,.12.36,1,1,0,0,0,.48.27l.83.28a1.9,1.9,0,0,1,.92.58,1.52,1.52,0,0,1,.27,1,1.73,1.73,0,0,1-.15.75,1.42,1.42,0,0,1-.42.52,1.56,1.56,0,0,1-.62.3,3.47,3.47,0,0,1-.81.09,3.36,3.36,0,0,1-1-.11,1.38,1.38,0,0,1-.61-.33,1.13,1.13,0,0,1-.31-.53,2.6,2.6,0,0,1-.09-.71v-.19h1.24Z"/>
    <path class="cls-1" d="M62.17,21.86V23H60.79V21.86Zm0,1.84v5.38H60.79V23.7Z"/>
    <path class="cls-1" d="M64.15,27.5a.86.86,0,0,0,.18.57.7.7,0,0,0,.54.21.76.76,0,0,0,.51-.16.57.57,0,0,0,.19-.48.5.5,0,0,0-.15-.39,1.38,1.38,0,0,0-.35-.22l-1-.35a1.82,1.82,0,0,1-.86-.56,1.5,1.5,0,0,1-.29-.94,1.8,1.8,0,0,1,.11-.62,1.3,1.3,0,0,1,.35-.52,1.94,1.94,0,0,1,.62-.35,3,3,0,0,1,.9-.13,2.08,2.08,0,0,1,1.39.4,1.45,1.45,0,0,1,.45,1.13v.22H65.53a1.08,1.08,0,0,0-.14-.61.53.53,0,0,0-.47-.2.75.75,0,0,0-.46.15.49.49,0,0,0-.19.43.56.56,0,0,0,.12.36,1,1,0,0,0,.48.27l.83.28a1.9,1.9,0,0,1,.92.58,1.52,1.52,0,0,1,.27,1,1.73,1.73,0,0,1-.15.75,1.42,1.42,0,0,1-.42.52,1.56,1.56,0,0,1-.62.3,3.47,3.47,0,0,1-.81.09,3.36,3.36,0,0,1-1-.11,1.38,1.38,0,0,1-.61-.33,1.13,1.13,0,0,1-.31-.53,2.6,2.6,0,0,1-.09-.71v-.19h1.24Z"/>
    <path class="cls-1" d="M71.18,27.06a2.19,2.19,0,0,0,0,.46.75.75,0,0,0,.15.34.64.64,0,0,0,.29.22,1.1,1.1,0,0,0,.47.08.91.91,0,0,0,.59-.21.82.82,0,0,0,.27-.67,1,1,0,0,0-.07-.41.81.81,0,0,0-.21-.32,1.37,1.37,0,0,0-.4-.25,4.66,4.66,0,0,0-.6-.24,4.32,4.32,0,0,1-.83-.35,2.22,2.22,0,0,1-.59-.44,1.66,1.66,0,0,1-.34-.59,2.62,2.62,0,0,1-.11-.78,2,2,0,0,1,.59-1.58,2.39,2.39,0,0,1,1.62-.52,3.48,3.48,0,0,1,.88.11,1.76,1.76,0,0,1,.7.34,1.46,1.46,0,0,1,.46.6,2.08,2.08,0,0,1,.17.87v.2H72.88a1.41,1.41,0,0,0-.18-.78.65.65,0,0,0-.6-.28,1.15,1.15,0,0,0-.4.07.73.73,0,0,0-.26.19.71.71,0,0,0-.13.26,1.63,1.63,0,0,0,0,.31,1.08,1.08,0,0,0,.14.56,1.18,1.18,0,0,0,.6.41l1.11.48a3.72,3.72,0,0,1,.67.38,1.8,1.8,0,0,1,.41.42,1.28,1.28,0,0,1,.22.49,2.77,2.77,0,0,1,.06.6,2,2,0,0,1-.66,1.65,2.88,2.88,0,0,1-1.82.51,2.38,2.38,0,0,1-1.75-.53,2.06,2.06,0,0,1-.52-1.52v-.29h1.44Z"/>
    <path class="cls-1" d="M76.55,21.94v2.31h0a1.4,1.4,0,0,1,1.31-.69,1.34,1.34,0,0,1,1,.36,1.61,1.61,0,0,1,.36,1.17v4H77.87V25.37a.93.93,0,0,0-.14-.58.55.55,0,0,0-.45-.17c-.49,0-.73.3-.73.89v3.57H75.17V21.94Z"/>
    <path class="cls-1" d="M80.1,25.17a2.2,2.2,0,0,1,.36-.88,1.49,1.49,0,0,1,.65-.54,2.29,2.29,0,0,1,1-.19,2.58,2.58,0,0,1,1,.17,1.41,1.41,0,0,1,.65.53,2.47,2.47,0,0,1,.34.89,6.55,6.55,0,0,1,.1,1.24,6.27,6.27,0,0,1-.11,1.22,2.41,2.41,0,0,1-.36.89,1.54,1.54,0,0,1-.66.52,2.44,2.44,0,0,1-1,.17,2.61,2.61,0,0,1-1-.15,1.45,1.45,0,0,1-.65-.52,2.47,2.47,0,0,1-.34-.89,6.55,6.55,0,0,1-.1-1.24A6.35,6.35,0,0,1,80.1,25.17Zm1.29,2a2.38,2.38,0,0,0,.09.6.83.83,0,0,0,.23.39.53.53,0,0,0,.4.14.58.58,0,0,0,.58-.44,4.83,4.83,0,0,0,.16-1.45,4.93,4.93,0,0,0-.16-1.45.59.59,0,0,0-.58-.44.57.57,0,0,0-.4.14.94.94,0,0,0-.23.39,2.53,2.53,0,0,0-.09.6c0,.24,0,.49,0,.76S81.38,26.92,81.39,27.15Z"/>
    <path class="cls-1" d="M86,23.7l.63,3.82h0l.67-3.82h1.5l.71,3.82h0l.65-3.82h1.32l-1.16,5.38H88.75L88,25.26h0l-.67,3.82h-1.6L84.58,23.7Z"/>
  </g>
</svg>
